M48
; DRILL file {KiCad 7.0.8} date 2023 October 01, Sunday 20:10:02
; FORMAT={-:-/ absolute / inch / decimal}
; #@! TF.CreationDate,2023-10-01T20:10:02-07:00
; #@! TF.GenerationSoftware,Kicad,Pcbnew,7.0.8
; #@! TF.FileFunction,Plated,1,2,PTH
FMAT,2
INCH
; #@! TA.AperFunction,Plated,PTH,ViaDrill
T1C0.0157
; #@! TA.AperFunction,Plated,PTH,ComponentDrill
T2C0.0394
; #@! TA.AperFunction,Plated,PTH,ComponentDrill
T3C0.1457
%
G90
G05
T1
X4.875Y-3.0
X5.05Y-3.1
X5.05Y-3.2
X5.05Y-3.325
X5.05Y-3.5
X5.05Y-3.6
X5.05Y-3.7
X5.2Y-2.825
T2
X4.7785Y-2.8
X4.7785Y-2.9
X4.7785Y-3.0
X4.7785Y-3.1
X4.7785Y-3.2
X4.7785Y-3.3
X4.7785Y-3.4
X4.7785Y-3.5
X4.7785Y-3.6
X4.7785Y-3.7
X4.7785Y-3.8
X4.7785Y-3.9
X5.15Y-2.9
X5.15Y-3.0
X5.15Y-3.1
X5.15Y-3.2
X5.15Y-3.3
X5.15Y-3.4
X5.15Y-3.5
X5.15Y-3.6
X5.15Y-3.7
X5.15Y-3.8
X5.25Y-2.9
X5.25Y-3.0
X5.25Y-3.1
X5.25Y-3.2
X5.25Y-3.3
X5.25Y-3.4
X5.25Y-3.5
X5.25Y-3.6
X5.25Y-3.7
X5.25Y-3.8
T3
X4.9Y-2.55
X4.9Y-4.15
T0
M30
