%TF.GenerationSoftware,KiCad,Pcbnew,7.0.8*%
%TF.CreationDate,2023-10-01T20:09:57-07:00*%
%TF.ProjectId,jtag-breakout,6a746167-2d62-4726-9561-6b6f75742e6b,rev?*%
%TF.SameCoordinates,Original*%
%TF.FileFunction,Copper,L2,Bot*%
%TF.FilePolarity,Positive*%
%FSLAX46Y46*%
G04 Gerber Fmt 4.6, Leading zero omitted, Abs format (unit mm)*
G04 Created by KiCad (PCBNEW 7.0.8) date 2023-10-01 20:09:57*
%MOMM*%
%LPD*%
G01*
G04 APERTURE LIST*
G04 Aperture macros list*
%AMRoundRect*
0 Rectangle with rounded corners*
0 $1 Rounding radius*
0 $2 $3 $4 $5 $6 $7 $8 $9 X,Y pos of 4 corners*
0 Add a 4 corners polygon primitive as box body*
4,1,4,$2,$3,$4,$5,$6,$7,$8,$9,$2,$3,0*
0 Add four circle primitives for the rounded corners*
1,1,$1+$1,$2,$3*
1,1,$1+$1,$4,$5*
1,1,$1+$1,$6,$7*
1,1,$1+$1,$8,$9*
0 Add four rect primitives between the rounded corners*
20,1,$1+$1,$2,$3,$4,$5,0*
20,1,$1+$1,$4,$5,$6,$7,0*
20,1,$1+$1,$6,$7,$8,$9,0*
20,1,$1+$1,$8,$9,$2,$3,0*%
G04 Aperture macros list end*
%TA.AperFunction,ComponentPad*%
%ADD10C,1.700000*%
%TD*%
%TA.AperFunction,ComponentPad*%
%ADD11RoundRect,0.250000X-0.600000X-0.600000X0.600000X-0.600000X0.600000X0.600000X-0.600000X0.600000X0*%
%TD*%
%TA.AperFunction,ComponentPad*%
%ADD12R,1.700000X1.700000*%
%TD*%
%TA.AperFunction,ComponentPad*%
%ADD13O,1.700000X1.700000*%
%TD*%
%TA.AperFunction,ComponentPad*%
%ADD14C,7.400000*%
%TD*%
%TA.AperFunction,ViaPad*%
%ADD15C,0.800000*%
%TD*%
%TA.AperFunction,Conductor*%
%ADD16C,0.250000*%
%TD*%
G04 APERTURE END LIST*
D10*
%TO.P,J1,20,GND*%
%TO.N,GND*%
X133350000Y-96520000D03*
%TO.P,J1,19,DBGACK/NC*%
%TO.N,Net-(J1-DBGACK{slash}NC)*%
X130810000Y-96520000D03*
%TO.P,J1,18,GND*%
%TO.N,GND*%
X133350000Y-93980000D03*
%TO.P,J1,17,DBGRQ/NC*%
%TO.N,Net-(J1-DBGRQ{slash}NC)*%
X130810000Y-93980000D03*
%TO.P,J1,16,GND*%
%TO.N,GND*%
X133350000Y-91440000D03*
%TO.P,J1,15,~{SRST}*%
%TO.N,Net-(J1-~{SRST})*%
X130810000Y-91440000D03*
%TO.P,J1,14,GND*%
%TO.N,GND*%
X133350000Y-88900000D03*
%TO.P,J1,13,TDO/SWO*%
%TO.N,Net-(J1-TDO{slash}SWO)*%
X130810000Y-88900000D03*
%TO.P,J1,12,GND*%
%TO.N,GND*%
X133350000Y-86360000D03*
%TO.P,J1,11,RTCK*%
%TO.N,Net-(J1-RTCK)*%
X130810000Y-86360000D03*
%TO.P,J1,10,GND*%
%TO.N,GND*%
X133350000Y-83820000D03*
%TO.P,J1,9,TCK/SWDCLK*%
%TO.N,Net-(J1-TCK{slash}SWDCLK)*%
X130810000Y-83820000D03*
%TO.P,J1,8,GND*%
%TO.N,GND*%
X133350000Y-81280000D03*
%TO.P,J1,7,TMS/SWDIO*%
%TO.N,Net-(J1-TMS{slash}SWDIO)*%
X130810000Y-81280000D03*
%TO.P,J1,6,GND*%
%TO.N,GND*%
X133350000Y-78740000D03*
%TO.P,J1,5,TDI*%
%TO.N,Net-(J1-TDI)*%
X130810000Y-78740000D03*
%TO.P,J1,4,GND*%
%TO.N,GND*%
X133350000Y-76200000D03*
%TO.P,J1,3,~{TRST}*%
%TO.N,Net-(J1-~{TRST})*%
X130810000Y-76200000D03*
%TO.P,J1,2,VCC/NC*%
%TO.N,+3V3*%
X133350000Y-73660000D03*
D11*
%TO.P,J1,1,VTREF*%
X130810000Y-73660000D03*
%TD*%
D12*
%TO.P,J2,1,Pin_1*%
%TO.N,+3V3*%
X121375000Y-99060000D03*
D13*
%TO.P,J2,2,Pin_2*%
%TO.N,Net-(J1-~{TRST})*%
X121375000Y-96520000D03*
%TO.P,J2,3,Pin_3*%
%TO.N,Net-(J1-TDI)*%
X121375000Y-93980000D03*
%TO.P,J2,4,Pin_4*%
%TO.N,Net-(J1-TMS{slash}SWDIO)*%
X121375000Y-91440000D03*
%TO.P,J2,5,Pin_5*%
%TO.N,Net-(J1-TCK{slash}SWDCLK)*%
X121375000Y-88900000D03*
%TO.P,J2,6,Pin_6*%
%TO.N,Net-(J1-RTCK)*%
X121375000Y-86360000D03*
%TO.P,J2,7,Pin_7*%
%TO.N,Net-(J1-TDO{slash}SWO)*%
X121375000Y-83820000D03*
%TO.P,J2,8,Pin_8*%
%TO.N,Net-(J1-~{SRST})*%
X121375000Y-81280000D03*
%TO.P,J2,9,Pin_9*%
%TO.N,Net-(J1-DBGRQ{slash}NC)*%
X121375000Y-78740000D03*
%TO.P,J2,10,Pin_10*%
%TO.N,Net-(J1-DBGACK{slash}NC)*%
X121375000Y-76200000D03*
%TO.P,J2,11,Pin_11*%
%TO.N,GND*%
X121375000Y-73660000D03*
%TO.P,J2,12,Pin_12*%
X121375000Y-71120000D03*
%TD*%
D14*
%TO.P,H2,1,1*%
%TO.N,GND*%
X124460000Y-105410000D03*
%TD*%
%TO.P,H1,1,1*%
%TO.N,GND*%
X124460000Y-64770000D03*
%TD*%
D15*
%TO.N,GND*%
X132080000Y-71755000D03*
X128270000Y-93980000D03*
X128270000Y-91440000D03*
X128270000Y-88900000D03*
X123825000Y-76200000D03*
X128270000Y-78740000D03*
X128270000Y-81280000D03*
X128270000Y-84455000D03*
%TD*%
D16*
%TO.N,Net-(J1-~{TRST})*%
X130810000Y-76200000D02*
X128905000Y-76200000D01*
X116840000Y-74930000D02*
X113665000Y-78105000D01*
X128905000Y-76200000D02*
X127635000Y-74930000D01*
X127635000Y-74930000D02*
X116840000Y-74930000D01*
X113665000Y-78105000D02*
X113665000Y-90170000D01*
X113665000Y-90170000D02*
X120015000Y-96520000D01*
X120015000Y-96520000D02*
X121375000Y-96520000D01*
%TO.N,GND*%
X124460000Y-73660000D02*
X128270000Y-73660000D01*
X128270000Y-73660000D02*
X129540000Y-74930000D01*
X129540000Y-74930000D02*
X132080000Y-74930000D01*
X132080000Y-74930000D02*
X133350000Y-76200000D01*
%TO.N,Net-(J1-~{SRST})*%
X130810000Y-91440000D02*
X129540000Y-90170000D01*
X120015000Y-90170000D02*
X116840000Y-86995000D01*
X129540000Y-90170000D02*
X120015000Y-90170000D01*
X116840000Y-86995000D02*
X116840000Y-83820000D01*
X116840000Y-83820000D02*
X119380000Y-81280000D01*
X119380000Y-81280000D02*
X121375000Y-81280000D01*
%TO.N,Net-(J1-DBGRQ{slash}NC)*%
X120650000Y-78740000D02*
X118745000Y-78740000D01*
X118745000Y-78740000D02*
X115570000Y-81915000D01*
X115570000Y-81915000D02*
X115570000Y-88265000D01*
X129540000Y-92710000D02*
X130810000Y-93980000D01*
X115570000Y-88265000D02*
X120015000Y-92710000D01*
X120015000Y-92710000D02*
X129540000Y-92710000D01*
%TO.N,Net-(J1-TCK{slash}SWDCLK)*%
X121375000Y-88900000D02*
X120016396Y-88900000D01*
X117475000Y-86358604D02*
X117475000Y-84455000D01*
X119380000Y-82550000D02*
X129540000Y-82550000D01*
X117475000Y-84455000D02*
X119380000Y-82550000D01*
X120016396Y-88900000D02*
X117475000Y-86358604D01*
X129540000Y-82550000D02*
X130810000Y-83820000D01*
%TO.N,Net-(J1-TDO{slash}SWO)*%
X130810000Y-88900000D02*
X129494302Y-87584302D01*
X118560000Y-86175000D02*
X118560000Y-85275000D01*
X118560000Y-85275000D02*
X120015000Y-83820000D01*
X119969302Y-87584302D02*
X118560000Y-86175000D01*
X129494302Y-87584302D02*
X119969302Y-87584302D01*
X120015000Y-83820000D02*
X121375000Y-83820000D01*
%TO.N,+3V3*%
X121375000Y-99060000D02*
X120650000Y-99060000D01*
X119794000Y-69850000D02*
X130810000Y-69850000D01*
X120650000Y-99060000D02*
X113030000Y-91440000D01*
X113030000Y-91440000D02*
X113030000Y-76614000D01*
X113030000Y-76614000D02*
X119794000Y-69850000D01*
%TO.N,Net-(J1-DBGACK{slash}NC)*%
X121375000Y-76200000D02*
X117475000Y-76200000D01*
X120015000Y-95250000D02*
X129540000Y-95250000D01*
X129540000Y-95250000D02*
X130810000Y-96520000D01*
X117475000Y-76200000D02*
X114300000Y-79375000D01*
X114300000Y-79375000D02*
X114300000Y-89535000D01*
X114300000Y-89535000D02*
X120015000Y-95250000D01*
%TO.N,Net-(J1-TDI)*%
X130810000Y-78740000D02*
X129540000Y-77470000D01*
X129540000Y-77470000D02*
X118110000Y-77470000D01*
X114935000Y-80645000D02*
X114935000Y-88900000D01*
X114935000Y-88900000D02*
X120015000Y-93980000D01*
X118110000Y-77470000D02*
X114935000Y-80645000D01*
X120015000Y-93980000D02*
X121375000Y-93980000D01*
%TO.N,Net-(J1-TMS{slash}SWDIO)*%
X121375000Y-91440000D02*
X120015000Y-91440000D01*
X116205000Y-83185000D02*
X119380000Y-80010000D01*
X120015000Y-91440000D02*
X116205000Y-87630000D01*
X116205000Y-87630000D02*
X116205000Y-83185000D01*
X119380000Y-80010000D02*
X129540000Y-80010000D01*
X129540000Y-80010000D02*
X130810000Y-81280000D01*
%TO.N,Net-(J1-RTCK)*%
X130810000Y-86360000D02*
X121375000Y-86360000D01*
%TO.N,GND*%
X124460000Y-72390000D02*
X123190000Y-71120000D01*
X124460000Y-73660000D02*
X124460000Y-72390000D01*
X123190000Y-71120000D02*
X121375000Y-71120000D01*
X121375000Y-73660000D02*
X124460000Y-73660000D01*
X121375000Y-71120000D02*
X122324000Y-71120000D01*
%TO.N,+3V3*%
X130810000Y-69850000D02*
X132080000Y-69850000D01*
X132080000Y-69850000D02*
X133350000Y-71120000D01*
X133350000Y-71120000D02*
X133350000Y-73660000D01*
X130810000Y-69850000D02*
X130810000Y-73660000D01*
%TO.N,GND*%
X124460000Y-106680000D02*
X133350000Y-97790000D01*
X135255000Y-69215000D02*
X134620000Y-68580000D01*
X124460000Y-68580000D02*
X124460000Y-60960000D01*
X133350000Y-97790000D02*
X133350000Y-76200000D01*
X133350000Y-76200000D02*
X133985000Y-76200000D01*
X135255000Y-74930000D02*
X135255000Y-69215000D01*
X133985000Y-76200000D02*
X135255000Y-74930000D01*
X134620000Y-68580000D02*
X124460000Y-68580000D01*
%TD*%
%TA.AperFunction,Conductor*%
%TO.N,GND*%
G36*
X132890507Y-94189844D02*
G01*
X132968239Y-94310798D01*
X133076900Y-94404952D01*
X133207685Y-94464680D01*
X133217466Y-94466086D01*
X132588625Y-95094925D01*
X132665031Y-95148425D01*
X132708655Y-95203002D01*
X132715848Y-95272501D01*
X132684326Y-95334855D01*
X132665029Y-95351576D01*
X132588625Y-95405072D01*
X133217466Y-96033913D01*
X133207685Y-96035320D01*
X133076900Y-96095048D01*
X132968239Y-96189202D01*
X132890507Y-96310156D01*
X132866923Y-96390476D01*
X132235073Y-95758626D01*
X132181881Y-95834594D01*
X132127304Y-95878219D01*
X132057806Y-95885413D01*
X131995451Y-95853891D01*
X131978730Y-95834594D01*
X131848494Y-95648597D01*
X131681402Y-95481506D01*
X131681396Y-95481501D01*
X131495842Y-95351575D01*
X131452217Y-95296998D01*
X131445023Y-95227500D01*
X131476546Y-95165145D01*
X131495842Y-95148425D01*
X131572248Y-95094925D01*
X131681401Y-95018495D01*
X131848495Y-94851401D01*
X131978732Y-94665403D01*
X132033307Y-94621780D01*
X132102805Y-94614586D01*
X132165160Y-94646109D01*
X132181880Y-94665405D01*
X132235073Y-94741373D01*
X132866923Y-94109523D01*
X132890507Y-94189844D01*
G37*
%TD.AperFunction*%
%TA.AperFunction,Conductor*%
G36*
X129296587Y-93355185D02*
G01*
X129317229Y-93371819D01*
X129469762Y-93524352D01*
X129503247Y-93585675D01*
X129501856Y-93644126D01*
X129474938Y-93744586D01*
X129474936Y-93744596D01*
X129454341Y-93979999D01*
X129454341Y-93980000D01*
X129474936Y-94215403D01*
X129474938Y-94215413D01*
X129536094Y-94443655D01*
X129536099Y-94443669D01*
X129538163Y-94448094D01*
X129548656Y-94517171D01*
X129520137Y-94580955D01*
X129461661Y-94619196D01*
X129425782Y-94624500D01*
X122759218Y-94624500D01*
X122692179Y-94604815D01*
X122646424Y-94552011D01*
X122636480Y-94482853D01*
X122646837Y-94448094D01*
X122648900Y-94443669D01*
X122648903Y-94443663D01*
X122710063Y-94215408D01*
X122730659Y-93980000D01*
X122710063Y-93744592D01*
X122648903Y-93516337D01*
X122646837Y-93511906D01*
X122636344Y-93442829D01*
X122664863Y-93379045D01*
X122723339Y-93340804D01*
X122759218Y-93335500D01*
X129229548Y-93335500D01*
X129296587Y-93355185D01*
G37*
%TD.AperFunction*%
%TA.AperFunction,Conductor*%
G36*
X132890507Y-91649844D02*
G01*
X132968239Y-91770798D01*
X133076900Y-91864952D01*
X133207685Y-91924680D01*
X133217466Y-91926086D01*
X132588625Y-92554925D01*
X132665031Y-92608425D01*
X132708655Y-92663002D01*
X132715848Y-92732501D01*
X132684326Y-92794855D01*
X132665029Y-92811576D01*
X132588625Y-92865072D01*
X133217466Y-93493913D01*
X133207685Y-93495320D01*
X133076900Y-93555048D01*
X132968239Y-93649202D01*
X132890507Y-93770156D01*
X132866923Y-93850476D01*
X132235073Y-93218626D01*
X132181881Y-93294594D01*
X132127304Y-93338219D01*
X132057806Y-93345413D01*
X131995451Y-93313891D01*
X131978730Y-93294594D01*
X131848494Y-93108597D01*
X131681402Y-92941506D01*
X131681396Y-92941501D01*
X131495842Y-92811575D01*
X131452217Y-92756998D01*
X131445023Y-92687500D01*
X131476546Y-92625145D01*
X131495842Y-92608425D01*
X131572248Y-92554925D01*
X131681401Y-92478495D01*
X131848495Y-92311401D01*
X131978732Y-92125403D01*
X132033307Y-92081780D01*
X132102805Y-92074586D01*
X132165160Y-92106109D01*
X132181880Y-92125405D01*
X132235073Y-92201373D01*
X132866923Y-91569523D01*
X132890507Y-91649844D01*
G37*
%TD.AperFunction*%
%TA.AperFunction,Conductor*%
G36*
X129296587Y-90815185D02*
G01*
X129317229Y-90831819D01*
X129469762Y-90984352D01*
X129503247Y-91045675D01*
X129501856Y-91104126D01*
X129474938Y-91204586D01*
X129474936Y-91204596D01*
X129454341Y-91439999D01*
X129454341Y-91440000D01*
X129474936Y-91675403D01*
X129474938Y-91675413D01*
X129536094Y-91903655D01*
X129536099Y-91903669D01*
X129538163Y-91908094D01*
X129548656Y-91977171D01*
X129520137Y-92040955D01*
X129461661Y-92079196D01*
X129425782Y-92084500D01*
X122759218Y-92084500D01*
X122692179Y-92064815D01*
X122646424Y-92012011D01*
X122636480Y-91942853D01*
X122646837Y-91908094D01*
X122648900Y-91903669D01*
X122648903Y-91903663D01*
X122710063Y-91675408D01*
X122730659Y-91440000D01*
X122710063Y-91204592D01*
X122648903Y-90976337D01*
X122646837Y-90971906D01*
X122636344Y-90902829D01*
X122664863Y-90839045D01*
X122723339Y-90800804D01*
X122759218Y-90795500D01*
X129229548Y-90795500D01*
X129296587Y-90815185D01*
G37*
%TD.AperFunction*%
%TA.AperFunction,Conductor*%
G36*
X132890507Y-89109844D02*
G01*
X132968239Y-89230798D01*
X133076900Y-89324952D01*
X133207685Y-89384680D01*
X133217466Y-89386086D01*
X132588625Y-90014925D01*
X132665031Y-90068425D01*
X132708655Y-90123002D01*
X132715848Y-90192501D01*
X132684326Y-90254855D01*
X132665029Y-90271576D01*
X132588625Y-90325072D01*
X133217466Y-90953913D01*
X133207685Y-90955320D01*
X133076900Y-91015048D01*
X132968239Y-91109202D01*
X132890507Y-91230156D01*
X132866923Y-91310476D01*
X132235073Y-90678626D01*
X132181881Y-90754594D01*
X132127304Y-90798219D01*
X132057806Y-90805413D01*
X131995451Y-90773891D01*
X131978730Y-90754594D01*
X131848494Y-90568597D01*
X131681402Y-90401506D01*
X131681396Y-90401501D01*
X131495842Y-90271575D01*
X131452217Y-90216998D01*
X131445023Y-90147500D01*
X131476546Y-90085145D01*
X131495842Y-90068425D01*
X131572248Y-90014925D01*
X131681401Y-89938495D01*
X131848495Y-89771401D01*
X131978732Y-89585403D01*
X132033307Y-89541780D01*
X132102805Y-89534586D01*
X132165160Y-89566109D01*
X132181880Y-89585405D01*
X132235073Y-89661373D01*
X132866923Y-89029523D01*
X132890507Y-89109844D01*
G37*
%TD.AperFunction*%
%TA.AperFunction,Conductor*%
G36*
X129250889Y-88229487D02*
G01*
X129271531Y-88246121D01*
X129469762Y-88444352D01*
X129503247Y-88505675D01*
X129501856Y-88564126D01*
X129474938Y-88664586D01*
X129474936Y-88664596D01*
X129454341Y-88899999D01*
X129454341Y-88900000D01*
X129474936Y-89135403D01*
X129474938Y-89135413D01*
X129536094Y-89363655D01*
X129536099Y-89363669D01*
X129538163Y-89368094D01*
X129548656Y-89437171D01*
X129520137Y-89500955D01*
X129461661Y-89539196D01*
X129425782Y-89544500D01*
X122759218Y-89544500D01*
X122692179Y-89524815D01*
X122646424Y-89472011D01*
X122636480Y-89402853D01*
X122646837Y-89368094D01*
X122648900Y-89363669D01*
X122648903Y-89363663D01*
X122710063Y-89135408D01*
X122730659Y-88900000D01*
X122710063Y-88664592D01*
X122648903Y-88436337D01*
X122631959Y-88400000D01*
X122625527Y-88386206D01*
X122615035Y-88317129D01*
X122643555Y-88253345D01*
X122702032Y-88215106D01*
X122737909Y-88209802D01*
X129183850Y-88209802D01*
X129250889Y-88229487D01*
G37*
%TD.AperFunction*%
%TA.AperFunction,Conductor*%
G36*
X132890507Y-86569844D02*
G01*
X132968239Y-86690798D01*
X133076900Y-86784952D01*
X133207685Y-86844680D01*
X133217466Y-86846086D01*
X132588625Y-87474925D01*
X132665031Y-87528425D01*
X132708655Y-87583002D01*
X132715848Y-87652501D01*
X132684326Y-87714855D01*
X132665029Y-87731576D01*
X132588625Y-87785072D01*
X133217466Y-88413913D01*
X133207685Y-88415320D01*
X133076900Y-88475048D01*
X132968239Y-88569202D01*
X132890507Y-88690156D01*
X132866923Y-88770476D01*
X132235073Y-88138626D01*
X132181881Y-88214594D01*
X132127304Y-88258219D01*
X132057806Y-88265413D01*
X131995451Y-88233891D01*
X131978730Y-88214594D01*
X131848494Y-88028597D01*
X131681402Y-87861506D01*
X131681396Y-87861501D01*
X131495842Y-87731575D01*
X131452217Y-87676998D01*
X131445023Y-87607500D01*
X131476546Y-87545145D01*
X131495842Y-87528425D01*
X131572248Y-87474925D01*
X131681401Y-87398495D01*
X131848495Y-87231401D01*
X131978732Y-87045403D01*
X132033307Y-87001780D01*
X132102805Y-86994586D01*
X132165160Y-87026109D01*
X132181880Y-87045405D01*
X132235073Y-87121373D01*
X132866923Y-86489523D01*
X132890507Y-86569844D01*
G37*
%TD.AperFunction*%
%TA.AperFunction,Conductor*%
G36*
X132890507Y-84029844D02*
G01*
X132968239Y-84150798D01*
X133076900Y-84244952D01*
X133207685Y-84304680D01*
X133217466Y-84306086D01*
X132588625Y-84934925D01*
X132665031Y-84988425D01*
X132708655Y-85043002D01*
X132715848Y-85112501D01*
X132684326Y-85174855D01*
X132665029Y-85191576D01*
X132588625Y-85245072D01*
X133217466Y-85873913D01*
X133207685Y-85875320D01*
X133076900Y-85935048D01*
X132968239Y-86029202D01*
X132890507Y-86150156D01*
X132866923Y-86230476D01*
X132235073Y-85598626D01*
X132181881Y-85674594D01*
X132127304Y-85718219D01*
X132057806Y-85725413D01*
X131995451Y-85693891D01*
X131978730Y-85674594D01*
X131848494Y-85488597D01*
X131681402Y-85321506D01*
X131681396Y-85321501D01*
X131495842Y-85191575D01*
X131452217Y-85136998D01*
X131445023Y-85067500D01*
X131476546Y-85005145D01*
X131495842Y-84988425D01*
X131572248Y-84934925D01*
X131681401Y-84858495D01*
X131848495Y-84691401D01*
X131978732Y-84505403D01*
X132033307Y-84461780D01*
X132102805Y-84454586D01*
X132165160Y-84486109D01*
X132181880Y-84505405D01*
X132235073Y-84581373D01*
X132866923Y-83949523D01*
X132890507Y-84029844D01*
G37*
%TD.AperFunction*%
%TA.AperFunction,Conductor*%
G36*
X129296587Y-83195185D02*
G01*
X129317229Y-83211819D01*
X129469762Y-83364352D01*
X129503247Y-83425675D01*
X129501856Y-83484126D01*
X129474938Y-83584586D01*
X129474936Y-83584596D01*
X129454341Y-83819999D01*
X129454341Y-83820000D01*
X129474936Y-84055403D01*
X129474938Y-84055413D01*
X129536094Y-84283655D01*
X129536096Y-84283659D01*
X129536097Y-84283663D01*
X129615800Y-84454586D01*
X129635965Y-84497830D01*
X129635967Y-84497834D01*
X129729290Y-84631112D01*
X129771501Y-84691396D01*
X129771506Y-84691402D01*
X129938597Y-84858493D01*
X129938603Y-84858498D01*
X130124158Y-84988425D01*
X130167783Y-85043002D01*
X130174977Y-85112500D01*
X130143454Y-85174855D01*
X130124158Y-85191575D01*
X129938597Y-85321505D01*
X129771505Y-85488597D01*
X129636348Y-85681623D01*
X129581771Y-85725248D01*
X129534773Y-85734500D01*
X122650227Y-85734500D01*
X122583188Y-85714815D01*
X122548652Y-85681623D01*
X122413494Y-85488597D01*
X122246402Y-85321506D01*
X122246396Y-85321501D01*
X122060842Y-85191575D01*
X122017217Y-85136998D01*
X122010023Y-85067500D01*
X122041546Y-85005145D01*
X122060842Y-84988425D01*
X122137248Y-84934925D01*
X122246401Y-84858495D01*
X122413495Y-84691401D01*
X122549035Y-84497830D01*
X122648903Y-84283663D01*
X122710063Y-84055408D01*
X122730659Y-83820000D01*
X122710063Y-83584592D01*
X122648903Y-83356337D01*
X122646837Y-83351906D01*
X122636344Y-83282829D01*
X122664863Y-83219045D01*
X122723339Y-83180804D01*
X122759218Y-83175500D01*
X129229548Y-83175500D01*
X129296587Y-83195185D01*
G37*
%TD.AperFunction*%
%TA.AperFunction,Conductor*%
G36*
X132890507Y-81489844D02*
G01*
X132968239Y-81610798D01*
X133076900Y-81704952D01*
X133207685Y-81764680D01*
X133217466Y-81766086D01*
X132588625Y-82394925D01*
X132665031Y-82448425D01*
X132708655Y-82503002D01*
X132715848Y-82572501D01*
X132684326Y-82634855D01*
X132665029Y-82651576D01*
X132588625Y-82705072D01*
X133217466Y-83333913D01*
X133207685Y-83335320D01*
X133076900Y-83395048D01*
X132968239Y-83489202D01*
X132890507Y-83610156D01*
X132866923Y-83690476D01*
X132235073Y-83058626D01*
X132181881Y-83134594D01*
X132127304Y-83178219D01*
X132057806Y-83185413D01*
X131995451Y-83153891D01*
X131978730Y-83134594D01*
X131848494Y-82948597D01*
X131681402Y-82781506D01*
X131681396Y-82781501D01*
X131495842Y-82651575D01*
X131452217Y-82596998D01*
X131445023Y-82527500D01*
X131476546Y-82465145D01*
X131495842Y-82448425D01*
X131572248Y-82394925D01*
X131681401Y-82318495D01*
X131848495Y-82151401D01*
X131978732Y-81965403D01*
X132033307Y-81921780D01*
X132102805Y-81914586D01*
X132165160Y-81946109D01*
X132181880Y-81965405D01*
X132235073Y-82041373D01*
X132866923Y-81409523D01*
X132890507Y-81489844D01*
G37*
%TD.AperFunction*%
%TA.AperFunction,Conductor*%
G36*
X129296587Y-80655185D02*
G01*
X129317229Y-80671819D01*
X129469762Y-80824352D01*
X129503247Y-80885675D01*
X129501856Y-80944126D01*
X129474938Y-81044586D01*
X129474936Y-81044596D01*
X129454341Y-81279999D01*
X129454341Y-81280000D01*
X129474936Y-81515403D01*
X129474938Y-81515413D01*
X129536094Y-81743655D01*
X129536099Y-81743669D01*
X129538163Y-81748094D01*
X129548656Y-81817171D01*
X129520137Y-81880955D01*
X129461661Y-81919196D01*
X129425782Y-81924500D01*
X122759218Y-81924500D01*
X122692179Y-81904815D01*
X122646424Y-81852011D01*
X122636480Y-81782853D01*
X122646837Y-81748094D01*
X122648900Y-81743669D01*
X122648903Y-81743663D01*
X122710063Y-81515408D01*
X122730659Y-81280000D01*
X122710063Y-81044592D01*
X122648903Y-80816337D01*
X122646837Y-80811906D01*
X122636344Y-80742829D01*
X122664863Y-80679045D01*
X122723339Y-80640804D01*
X122759218Y-80635500D01*
X129229548Y-80635500D01*
X129296587Y-80655185D01*
G37*
%TD.AperFunction*%
%TA.AperFunction,Conductor*%
G36*
X132890507Y-78949844D02*
G01*
X132968239Y-79070798D01*
X133076900Y-79164952D01*
X133207685Y-79224680D01*
X133217466Y-79226086D01*
X132588625Y-79854925D01*
X132665031Y-79908425D01*
X132708655Y-79963002D01*
X132715848Y-80032501D01*
X132684326Y-80094855D01*
X132665029Y-80111576D01*
X132588625Y-80165072D01*
X133217466Y-80793913D01*
X133207685Y-80795320D01*
X133076900Y-80855048D01*
X132968239Y-80949202D01*
X132890507Y-81070156D01*
X132866923Y-81150476D01*
X132235073Y-80518626D01*
X132181881Y-80594594D01*
X132127304Y-80638219D01*
X132057806Y-80645413D01*
X131995451Y-80613891D01*
X131978730Y-80594594D01*
X131848494Y-80408597D01*
X131681402Y-80241506D01*
X131681396Y-80241501D01*
X131495842Y-80111575D01*
X131452217Y-80056998D01*
X131445023Y-79987500D01*
X131476546Y-79925145D01*
X131495842Y-79908425D01*
X131572248Y-79854925D01*
X131681401Y-79778495D01*
X131848495Y-79611401D01*
X131978732Y-79425403D01*
X132033307Y-79381780D01*
X132102805Y-79374586D01*
X132165160Y-79406109D01*
X132181880Y-79425405D01*
X132235073Y-79501373D01*
X132866923Y-78869523D01*
X132890507Y-78949844D01*
G37*
%TD.AperFunction*%
%TA.AperFunction,Conductor*%
G36*
X129296587Y-78115185D02*
G01*
X129317229Y-78131819D01*
X129469762Y-78284352D01*
X129503247Y-78345675D01*
X129501856Y-78404126D01*
X129474938Y-78504586D01*
X129474936Y-78504596D01*
X129454341Y-78739999D01*
X129454341Y-78740000D01*
X129474936Y-78975403D01*
X129474938Y-78975413D01*
X129536094Y-79203655D01*
X129536099Y-79203669D01*
X129538163Y-79208094D01*
X129548656Y-79277171D01*
X129520137Y-79340955D01*
X129461661Y-79379196D01*
X129425782Y-79384500D01*
X122759218Y-79384500D01*
X122692179Y-79364815D01*
X122646424Y-79312011D01*
X122636480Y-79242853D01*
X122646837Y-79208094D01*
X122648900Y-79203669D01*
X122648903Y-79203663D01*
X122710063Y-78975408D01*
X122730659Y-78740000D01*
X122710063Y-78504592D01*
X122648903Y-78276337D01*
X122646837Y-78271906D01*
X122636344Y-78202829D01*
X122664863Y-78139045D01*
X122723339Y-78100804D01*
X122759218Y-78095500D01*
X129229548Y-78095500D01*
X129296587Y-78115185D01*
G37*
%TD.AperFunction*%
%TA.AperFunction,Conductor*%
G36*
X132890507Y-76409844D02*
G01*
X132968239Y-76530798D01*
X133076900Y-76624952D01*
X133207685Y-76684680D01*
X133217466Y-76686086D01*
X132588625Y-77314925D01*
X132665031Y-77368425D01*
X132708655Y-77423002D01*
X132715848Y-77492501D01*
X132684326Y-77554855D01*
X132665029Y-77571576D01*
X132588625Y-77625072D01*
X133217466Y-78253913D01*
X133207685Y-78255320D01*
X133076900Y-78315048D01*
X132968239Y-78409202D01*
X132890507Y-78530156D01*
X132866923Y-78610476D01*
X132235073Y-77978626D01*
X132181881Y-78054594D01*
X132127304Y-78098219D01*
X132057806Y-78105413D01*
X131995451Y-78073891D01*
X131978730Y-78054594D01*
X131848494Y-77868597D01*
X131681402Y-77701506D01*
X131681396Y-77701501D01*
X131495842Y-77571575D01*
X131452217Y-77516998D01*
X131445023Y-77447500D01*
X131476546Y-77385145D01*
X131495842Y-77368425D01*
X131572248Y-77314925D01*
X131681401Y-77238495D01*
X131848495Y-77071401D01*
X131978732Y-76885403D01*
X132033307Y-76841780D01*
X132102805Y-76834586D01*
X132165160Y-76866109D01*
X132181880Y-76885405D01*
X132235073Y-76961373D01*
X132866923Y-76329523D01*
X132890507Y-76409844D01*
G37*
%TD.AperFunction*%
%TA.AperFunction,Conductor*%
G36*
X119989351Y-70641752D02*
G01*
X120045284Y-70683624D01*
X120069701Y-70749088D01*
X120065792Y-70790027D01*
X120044363Y-70869999D01*
X120044364Y-70870000D01*
X120941314Y-70870000D01*
X120915507Y-70910156D01*
X120875000Y-71048111D01*
X120875000Y-71191889D01*
X120915507Y-71329844D01*
X120941314Y-71370000D01*
X120044364Y-71370000D01*
X120101567Y-71583486D01*
X120101570Y-71583492D01*
X120201399Y-71797578D01*
X120336894Y-71991082D01*
X120503917Y-72158105D01*
X120690031Y-72288425D01*
X120733656Y-72343003D01*
X120740848Y-72412501D01*
X120709326Y-72474856D01*
X120690031Y-72491575D01*
X120503922Y-72621890D01*
X120503920Y-72621891D01*
X120336891Y-72788920D01*
X120336886Y-72788926D01*
X120201400Y-72982420D01*
X120201399Y-72982422D01*
X120101570Y-73196507D01*
X120101567Y-73196513D01*
X120044364Y-73409999D01*
X120044364Y-73410000D01*
X120941314Y-73410000D01*
X120915507Y-73450156D01*
X120875000Y-73588111D01*
X120875000Y-73731889D01*
X120915507Y-73869844D01*
X120941314Y-73910000D01*
X120044364Y-73910000D01*
X120101567Y-74123486D01*
X120101571Y-74123497D01*
X120103716Y-74128096D01*
X120114208Y-74197173D01*
X120085688Y-74260957D01*
X120027211Y-74299196D01*
X119991334Y-74304500D01*
X116922738Y-74304500D01*
X116907121Y-74302776D01*
X116907094Y-74303062D01*
X116899332Y-74302327D01*
X116830204Y-74304500D01*
X116800650Y-74304500D01*
X116799929Y-74304590D01*
X116793757Y-74305369D01*
X116787945Y-74305826D01*
X116741373Y-74307290D01*
X116741372Y-74307290D01*
X116722129Y-74312881D01*
X116703079Y-74316825D01*
X116683211Y-74319334D01*
X116639884Y-74336488D01*
X116634358Y-74338379D01*
X116589614Y-74351379D01*
X116589610Y-74351381D01*
X116572366Y-74361579D01*
X116554905Y-74370133D01*
X116536274Y-74377510D01*
X116536262Y-74377517D01*
X116498570Y-74404902D01*
X116493687Y-74408109D01*
X116453580Y-74431829D01*
X116439414Y-74445995D01*
X116424622Y-74458629D01*
X116408409Y-74470408D01*
X116378711Y-74506308D01*
X116374778Y-74510631D01*
X113867181Y-77018228D01*
X113805858Y-77051713D01*
X113736166Y-77046729D01*
X113680233Y-77004857D01*
X113655816Y-76939393D01*
X113655500Y-76930547D01*
X113655500Y-76924452D01*
X113675185Y-76857413D01*
X113691819Y-76836771D01*
X114956262Y-75572328D01*
X116226542Y-74302047D01*
X116230903Y-74299666D01*
X116231244Y-74298791D01*
X116241752Y-74286837D01*
X119858338Y-70670251D01*
X119919659Y-70636768D01*
X119989351Y-70641752D01*
G37*
%TD.AperFunction*%
%TA.AperFunction,Conductor*%
G36*
X127391587Y-75575185D02*
G01*
X127412229Y-75591819D01*
X128404197Y-76583788D01*
X128414022Y-76596051D01*
X128414243Y-76595869D01*
X128419210Y-76601874D01*
X128449276Y-76630107D01*
X128484671Y-76690348D01*
X128481879Y-76760162D01*
X128441786Y-76817383D01*
X128377121Y-76843845D01*
X128364393Y-76844500D01*
X122759218Y-76844500D01*
X122692179Y-76824815D01*
X122646424Y-76772011D01*
X122636480Y-76702853D01*
X122646837Y-76668094D01*
X122648900Y-76663669D01*
X122648903Y-76663663D01*
X122710063Y-76435408D01*
X122730659Y-76200000D01*
X122710063Y-75964592D01*
X122648903Y-75736337D01*
X122646837Y-75731906D01*
X122636344Y-75662829D01*
X122664863Y-75599045D01*
X122723339Y-75560804D01*
X122759218Y-75555500D01*
X127324548Y-75555500D01*
X127391587Y-75575185D01*
G37*
%TD.AperFunction*%
%TA.AperFunction,Conductor*%
G36*
X132270720Y-74498779D02*
G01*
X132307483Y-74527766D01*
X132307677Y-74527573D01*
X132309313Y-74529209D01*
X132310354Y-74530030D01*
X132311501Y-74531397D01*
X132311505Y-74531401D01*
X132478599Y-74698495D01*
X132664594Y-74828730D01*
X132708218Y-74883307D01*
X132715411Y-74952806D01*
X132683889Y-75015160D01*
X132664593Y-75031880D01*
X132588626Y-75085072D01*
X132588625Y-75085072D01*
X133217466Y-75713913D01*
X133207685Y-75715320D01*
X133076900Y-75775048D01*
X132968239Y-75869202D01*
X132890507Y-75990156D01*
X132866923Y-76070476D01*
X132235073Y-75438626D01*
X132181881Y-75514594D01*
X132127304Y-75558219D01*
X132057806Y-75565413D01*
X131995451Y-75533891D01*
X131978730Y-75514594D01*
X131848494Y-75328597D01*
X131681398Y-75161501D01*
X131680030Y-75160354D01*
X131679592Y-75159696D01*
X131677573Y-75157677D01*
X131677978Y-75157271D01*
X131641330Y-75102182D01*
X131640224Y-75032321D01*
X131677063Y-74972952D01*
X131720737Y-74947662D01*
X131729334Y-74944814D01*
X131878656Y-74852712D01*
X132002712Y-74728656D01*
X132094814Y-74579334D01*
X132097662Y-74570738D01*
X132137429Y-74513294D01*
X132201944Y-74486468D01*
X132270720Y-74498779D01*
G37*
%TD.AperFunction*%
%TA.AperFunction,Conductor*%
G36*
X130127539Y-70495185D02*
G01*
X130173294Y-70547989D01*
X130184500Y-70599500D01*
X130184500Y-72195018D01*
X130164815Y-72262057D01*
X130112011Y-72307812D01*
X130073107Y-72318376D01*
X130057200Y-72320001D01*
X129890668Y-72375185D01*
X129890663Y-72375187D01*
X129741342Y-72467289D01*
X129617289Y-72591342D01*
X129525187Y-72740663D01*
X129525185Y-72740668D01*
X129508701Y-72790414D01*
X129470001Y-72907203D01*
X129470001Y-72907204D01*
X129470000Y-72907204D01*
X129459500Y-73009983D01*
X129459500Y-74310001D01*
X129459501Y-74310018D01*
X129470000Y-74412796D01*
X129470001Y-74412799D01*
X129509303Y-74531402D01*
X129525186Y-74579334D01*
X129617288Y-74728656D01*
X129741344Y-74852712D01*
X129890666Y-74944814D01*
X129899264Y-74947663D01*
X129956707Y-74987433D01*
X129983531Y-75051948D01*
X129971217Y-75120724D01*
X129942234Y-75157483D01*
X129942427Y-75157676D01*
X129940798Y-75159304D01*
X129939975Y-75160349D01*
X129938599Y-75161503D01*
X129771505Y-75328597D01*
X129636348Y-75521623D01*
X129581771Y-75565248D01*
X129534773Y-75574500D01*
X129215453Y-75574500D01*
X129148414Y-75554815D01*
X129127772Y-75538181D01*
X128135803Y-74546212D01*
X128125980Y-74533950D01*
X128125759Y-74534134D01*
X128120786Y-74528123D01*
X128102159Y-74510631D01*
X128070364Y-74480773D01*
X128059919Y-74470328D01*
X128049475Y-74459883D01*
X128043986Y-74455625D01*
X128039561Y-74451847D01*
X128005582Y-74419938D01*
X128005580Y-74419936D01*
X128005577Y-74419935D01*
X127988029Y-74410288D01*
X127971763Y-74399604D01*
X127955933Y-74387325D01*
X127913168Y-74368818D01*
X127907922Y-74366248D01*
X127867093Y-74343803D01*
X127867092Y-74343802D01*
X127847693Y-74338822D01*
X127829281Y-74332518D01*
X127810898Y-74324562D01*
X127810892Y-74324560D01*
X127764874Y-74317272D01*
X127759152Y-74316087D01*
X127714021Y-74304500D01*
X127714019Y-74304500D01*
X127693984Y-74304500D01*
X127674586Y-74302973D01*
X127667162Y-74301797D01*
X127654805Y-74299840D01*
X127654804Y-74299840D01*
X127608416Y-74304225D01*
X127602578Y-74304500D01*
X122758666Y-74304500D01*
X122691627Y-74284815D01*
X122645872Y-74232011D01*
X122635928Y-74162853D01*
X122646284Y-74128096D01*
X122648428Y-74123497D01*
X122648432Y-74123486D01*
X122705636Y-73910000D01*
X121808686Y-73910000D01*
X121834493Y-73869844D01*
X121875000Y-73731889D01*
X121875000Y-73588111D01*
X121834493Y-73450156D01*
X121808686Y-73410000D01*
X122705636Y-73410000D01*
X122705635Y-73409999D01*
X122648432Y-73196513D01*
X122648429Y-73196507D01*
X122548600Y-72982422D01*
X122548599Y-72982420D01*
X122413113Y-72788926D01*
X122413108Y-72788920D01*
X122246082Y-72621894D01*
X122059968Y-72491575D01*
X122016344Y-72436998D01*
X122009151Y-72367499D01*
X122040673Y-72305145D01*
X122059968Y-72288425D01*
X122246082Y-72158105D01*
X122413105Y-71991082D01*
X122548600Y-71797578D01*
X122648429Y-71583492D01*
X122648432Y-71583486D01*
X122705636Y-71370000D01*
X121808686Y-71370000D01*
X121834493Y-71329844D01*
X121875000Y-71191889D01*
X121875000Y-71048111D01*
X121834493Y-70910156D01*
X121808686Y-70870000D01*
X122705636Y-70870000D01*
X122705635Y-70869999D01*
X122648432Y-70656513D01*
X122648428Y-70656502D01*
X122646284Y-70651904D01*
X122635792Y-70582827D01*
X122664312Y-70519043D01*
X122722789Y-70480804D01*
X122758666Y-70475500D01*
X130060500Y-70475500D01*
X130127539Y-70495185D01*
G37*
%TD.AperFunction*%
%TA.AperFunction,Conductor*%
G36*
X121625000Y-73224498D02*
G01*
X121517315Y-73175320D01*
X121410763Y-73160000D01*
X121339237Y-73160000D01*
X121232685Y-73175320D01*
X121125000Y-73224498D01*
X121125000Y-71555501D01*
X121232685Y-71604680D01*
X121339237Y-71620000D01*
X121410763Y-71620000D01*
X121517315Y-71604680D01*
X121625000Y-71555501D01*
X121625000Y-73224498D01*
G37*
%TD.AperFunction*%
%TA.AperFunction,Conductor*%
G36*
X131836587Y-70495185D02*
G01*
X131857229Y-70511819D01*
X132688181Y-71342771D01*
X132721666Y-71404094D01*
X132724500Y-71430452D01*
X132724500Y-72384773D01*
X132704815Y-72451812D01*
X132671623Y-72486348D01*
X132478597Y-72621505D01*
X132311503Y-72788599D01*
X132310349Y-72789975D01*
X132309688Y-72790414D01*
X132307676Y-72792427D01*
X132307271Y-72792022D01*
X132252173Y-72828671D01*
X132182312Y-72829772D01*
X132122946Y-72792928D01*
X132097663Y-72749265D01*
X132094814Y-72740666D01*
X132002712Y-72591344D01*
X131878656Y-72467288D01*
X131744877Y-72384773D01*
X131729336Y-72375187D01*
X131729331Y-72375185D01*
X131706136Y-72367499D01*
X131562797Y-72320001D01*
X131558965Y-72319609D01*
X131546894Y-72318376D01*
X131482203Y-72291978D01*
X131442053Y-72234796D01*
X131435500Y-72195018D01*
X131435500Y-70599500D01*
X131455185Y-70532461D01*
X131507989Y-70486706D01*
X131559500Y-70475500D01*
X131769548Y-70475500D01*
X131836587Y-70495185D01*
G37*
%TD.AperFunction*%
%TA.AperFunction,Conductor*%
G36*
X139642539Y-59710185D02*
G01*
X139688294Y-59762989D01*
X139699500Y-59814500D01*
X139699500Y-110365500D01*
X139679815Y-110432539D01*
X139627011Y-110478294D01*
X139575500Y-110489500D01*
X109344500Y-110489500D01*
X109277461Y-110469815D01*
X109231706Y-110417011D01*
X109220500Y-110365500D01*
X109220500Y-105410000D01*
X120254935Y-105410000D01*
X120275185Y-105822176D01*
X120335735Y-106230373D01*
X120436007Y-106630676D01*
X120575019Y-107019189D01*
X120575027Y-107019209D01*
X120751466Y-107392257D01*
X120963614Y-107746206D01*
X121209441Y-108077664D01*
X121318478Y-108197967D01*
X122985790Y-106530655D01*
X123124616Y-106697472D01*
X123326305Y-106878185D01*
X123337777Y-106885774D01*
X121672031Y-108551520D01*
X121792335Y-108660558D01*
X122123793Y-108906385D01*
X122477742Y-109118533D01*
X122850790Y-109294972D01*
X122850810Y-109294980D01*
X123239323Y-109433992D01*
X123639626Y-109534264D01*
X124047823Y-109594814D01*
X124460000Y-109615064D01*
X124872176Y-109594814D01*
X125280373Y-109534264D01*
X125680676Y-109433992D01*
X126069189Y-109294980D01*
X126069209Y-109294972D01*
X126442257Y-109118533D01*
X126796206Y-108906385D01*
X127127670Y-108660554D01*
X127247967Y-108551521D01*
X127247967Y-108551519D01*
X125579410Y-106882963D01*
X125697842Y-106791514D01*
X125885800Y-106596560D01*
X125933474Y-106529922D01*
X127601519Y-108197967D01*
X127601521Y-108197967D01*
X127710554Y-108077670D01*
X127956385Y-107746206D01*
X128168533Y-107392257D01*
X128344972Y-107019209D01*
X128344980Y-107019189D01*
X128483992Y-106630676D01*
X128584264Y-106230373D01*
X128644814Y-105822176D01*
X128665064Y-105410000D01*
X128644814Y-104997823D01*
X128584264Y-104589626D01*
X128483992Y-104189323D01*
X128344980Y-103800810D01*
X128344972Y-103800790D01*
X128168533Y-103427742D01*
X127956385Y-103073793D01*
X127710558Y-102742335D01*
X127601520Y-102622031D01*
X125934208Y-104289343D01*
X125795384Y-104122528D01*
X125593695Y-103941815D01*
X125582221Y-103934223D01*
X127247967Y-102268478D01*
X127127664Y-102159441D01*
X126796206Y-101913614D01*
X126442257Y-101701466D01*
X126069209Y-101525027D01*
X126069189Y-101525019D01*
X125680676Y-101386007D01*
X125280373Y-101285735D01*
X124872176Y-101225185D01*
X124460000Y-101204935D01*
X124047823Y-101225185D01*
X123639626Y-101285735D01*
X123239323Y-101386007D01*
X122850810Y-101525019D01*
X122850790Y-101525027D01*
X122477742Y-101701466D01*
X122123793Y-101913614D01*
X121792329Y-102159445D01*
X121672031Y-102268477D01*
X121672031Y-102268478D01*
X123340589Y-103937036D01*
X123222158Y-104028486D01*
X123034200Y-104223440D01*
X122986524Y-104290077D01*
X121318478Y-102622031D01*
X121318477Y-102622031D01*
X121209445Y-102742329D01*
X120963614Y-103073793D01*
X120751466Y-103427742D01*
X120575027Y-103800790D01*
X120575019Y-103800810D01*
X120436007Y-104189323D01*
X120335735Y-104589626D01*
X120275185Y-104997823D01*
X120254935Y-105410000D01*
X109220500Y-105410000D01*
X109220500Y-76594195D01*
X112399840Y-76594195D01*
X112404225Y-76640583D01*
X112404500Y-76646421D01*
X112404500Y-91357255D01*
X112402775Y-91372872D01*
X112403061Y-91372899D01*
X112402326Y-91380665D01*
X112404500Y-91449814D01*
X112404500Y-91479343D01*
X112404501Y-91479360D01*
X112405368Y-91486231D01*
X112405826Y-91492050D01*
X112407290Y-91538624D01*
X112407291Y-91538627D01*
X112412880Y-91557867D01*
X112416824Y-91576911D01*
X112419336Y-91596791D01*
X112436490Y-91640119D01*
X112438382Y-91645647D01*
X112451381Y-91690388D01*
X112461580Y-91707634D01*
X112470136Y-91725100D01*
X112477514Y-91743732D01*
X112497178Y-91770798D01*
X112504898Y-91781423D01*
X112508106Y-91786307D01*
X112531827Y-91826416D01*
X112531833Y-91826424D01*
X112545990Y-91840580D01*
X112558628Y-91855376D01*
X112570405Y-91871586D01*
X112570406Y-91871587D01*
X112606309Y-91901288D01*
X112610620Y-91905210D01*
X118218734Y-97513325D01*
X119988181Y-99282772D01*
X120021666Y-99344095D01*
X120024500Y-99370453D01*
X120024500Y-99957870D01*
X120024501Y-99957876D01*
X120030908Y-100017483D01*
X120081202Y-100152328D01*
X120081206Y-100152335D01*
X120167452Y-100267544D01*
X120167455Y-100267547D01*
X120282664Y-100353793D01*
X120282671Y-100353797D01*
X120417517Y-100404091D01*
X120417516Y-100404091D01*
X120424444Y-100404835D01*
X120477127Y-100410500D01*
X122272872Y-100410499D01*
X122332483Y-100404091D01*
X122467331Y-100353796D01*
X122582546Y-100267546D01*
X122668796Y-100152331D01*
X122719091Y-100017483D01*
X122725500Y-99957873D01*
X122725499Y-98162128D01*
X122719091Y-98102517D01*
X122668796Y-97967669D01*
X122668795Y-97967668D01*
X122668793Y-97967664D01*
X122582547Y-97852455D01*
X122582544Y-97852452D01*
X122467335Y-97766206D01*
X122467328Y-97766202D01*
X122335917Y-97717189D01*
X122279983Y-97675318D01*
X122255566Y-97609853D01*
X122270418Y-97541580D01*
X122291563Y-97513332D01*
X122413495Y-97391401D01*
X122549035Y-97197830D01*
X122648903Y-96983663D01*
X122710063Y-96755408D01*
X122730659Y-96520000D01*
X122710063Y-96284592D01*
X122648903Y-96056337D01*
X122646837Y-96051906D01*
X122636344Y-95982829D01*
X122664863Y-95919045D01*
X122723339Y-95880804D01*
X122759218Y-95875500D01*
X129229548Y-95875500D01*
X129296587Y-95895185D01*
X129317229Y-95911819D01*
X129469762Y-96064352D01*
X129503247Y-96125675D01*
X129501856Y-96184126D01*
X129474938Y-96284586D01*
X129474936Y-96284596D01*
X129454341Y-96519999D01*
X129454341Y-96520000D01*
X129474936Y-96755403D01*
X129474938Y-96755413D01*
X129536094Y-96983655D01*
X129536096Y-96983659D01*
X129536097Y-96983663D01*
X129611431Y-97145216D01*
X129635965Y-97197830D01*
X129635967Y-97197834D01*
X129744281Y-97352521D01*
X129771505Y-97391401D01*
X129938599Y-97558495D01*
X130011946Y-97609853D01*
X130132165Y-97694032D01*
X130132167Y-97694033D01*
X130132170Y-97694035D01*
X130346337Y-97793903D01*
X130574592Y-97855063D01*
X130762918Y-97871539D01*
X130809999Y-97875659D01*
X130810000Y-97875659D01*
X130810001Y-97875659D01*
X130849234Y-97872226D01*
X131045408Y-97855063D01*
X131273663Y-97793903D01*
X131487830Y-97694035D01*
X131681401Y-97558495D01*
X131848495Y-97391401D01*
X131978732Y-97205403D01*
X132033307Y-97161780D01*
X132102805Y-97154586D01*
X132165160Y-97186109D01*
X132181880Y-97205405D01*
X132235073Y-97281373D01*
X132866923Y-96649523D01*
X132890507Y-96729844D01*
X132968239Y-96850798D01*
X133076900Y-96944952D01*
X133207685Y-97004680D01*
X133217466Y-97006086D01*
X132588625Y-97634925D01*
X132672421Y-97693599D01*
X132886507Y-97793429D01*
X132886516Y-97793433D01*
X133114673Y-97854567D01*
X133114684Y-97854569D01*
X133349998Y-97875157D01*
X133350002Y-97875157D01*
X133585315Y-97854569D01*
X133585326Y-97854567D01*
X133813483Y-97793433D01*
X133813492Y-97793429D01*
X134027578Y-97693600D01*
X134027582Y-97693598D01*
X134111373Y-97634926D01*
X134111373Y-97634925D01*
X133482533Y-97006086D01*
X133492315Y-97004680D01*
X133623100Y-96944952D01*
X133731761Y-96850798D01*
X133809493Y-96729844D01*
X133833076Y-96649524D01*
X134464925Y-97281373D01*
X134464926Y-97281373D01*
X134523598Y-97197582D01*
X134523600Y-97197578D01*
X134623429Y-96983492D01*
X134623433Y-96983483D01*
X134684567Y-96755326D01*
X134684569Y-96755315D01*
X134705157Y-96520001D01*
X134705157Y-96519998D01*
X134684569Y-96284684D01*
X134684567Y-96284673D01*
X134623433Y-96056516D01*
X134623429Y-96056507D01*
X134523600Y-95842423D01*
X134523599Y-95842421D01*
X134464925Y-95758626D01*
X134464925Y-95758625D01*
X133833076Y-96390475D01*
X133809493Y-96310156D01*
X133731761Y-96189202D01*
X133623100Y-96095048D01*
X133492315Y-96035320D01*
X133482533Y-96033913D01*
X134111373Y-95405073D01*
X134034969Y-95351576D01*
X133991344Y-95296999D01*
X133984150Y-95227501D01*
X134015672Y-95165146D01*
X134034968Y-95148425D01*
X134111373Y-95094925D01*
X133482533Y-94466086D01*
X133492315Y-94464680D01*
X133623100Y-94404952D01*
X133731761Y-94310798D01*
X133809493Y-94189844D01*
X133833076Y-94109524D01*
X134464925Y-94741373D01*
X134464926Y-94741373D01*
X134523598Y-94657582D01*
X134523600Y-94657578D01*
X134623429Y-94443492D01*
X134623433Y-94443483D01*
X134684567Y-94215326D01*
X134684569Y-94215315D01*
X134705157Y-93980001D01*
X134705157Y-93979998D01*
X134684569Y-93744684D01*
X134684567Y-93744673D01*
X134623433Y-93516516D01*
X134623429Y-93516507D01*
X134523600Y-93302423D01*
X134523599Y-93302421D01*
X134464925Y-93218626D01*
X134464925Y-93218625D01*
X133833076Y-93850475D01*
X133809493Y-93770156D01*
X133731761Y-93649202D01*
X133623100Y-93555048D01*
X133492315Y-93495320D01*
X133482533Y-93493913D01*
X134111373Y-92865073D01*
X134034969Y-92811576D01*
X133991344Y-92756999D01*
X133984150Y-92687501D01*
X134015672Y-92625146D01*
X134034968Y-92608425D01*
X134111373Y-92554925D01*
X133482533Y-91926086D01*
X133492315Y-91924680D01*
X133623100Y-91864952D01*
X133731761Y-91770798D01*
X133809493Y-91649844D01*
X133833076Y-91569524D01*
X134464925Y-92201373D01*
X134464926Y-92201373D01*
X134523598Y-92117582D01*
X134523600Y-92117578D01*
X134623429Y-91903492D01*
X134623433Y-91903483D01*
X134684567Y-91675326D01*
X134684569Y-91675315D01*
X134705157Y-91440001D01*
X134705157Y-91439998D01*
X134684569Y-91204684D01*
X134684567Y-91204673D01*
X134623433Y-90976516D01*
X134623429Y-90976507D01*
X134523600Y-90762423D01*
X134523599Y-90762421D01*
X134464925Y-90678626D01*
X134464925Y-90678625D01*
X133833076Y-91310475D01*
X133809493Y-91230156D01*
X133731761Y-91109202D01*
X133623100Y-91015048D01*
X133492315Y-90955320D01*
X133482533Y-90953913D01*
X134111373Y-90325073D01*
X134034969Y-90271576D01*
X133991344Y-90216999D01*
X133984150Y-90147501D01*
X134015672Y-90085146D01*
X134034968Y-90068425D01*
X134111373Y-90014925D01*
X133482533Y-89386086D01*
X133492315Y-89384680D01*
X133623100Y-89324952D01*
X133731761Y-89230798D01*
X133809493Y-89109844D01*
X133833076Y-89029524D01*
X134464925Y-89661373D01*
X134464926Y-89661373D01*
X134523598Y-89577582D01*
X134523600Y-89577578D01*
X134623429Y-89363492D01*
X134623433Y-89363483D01*
X134684567Y-89135326D01*
X134684569Y-89135315D01*
X134705157Y-88900001D01*
X134705157Y-88899998D01*
X134684569Y-88664684D01*
X134684567Y-88664673D01*
X134623433Y-88436516D01*
X134623429Y-88436507D01*
X134523600Y-88222423D01*
X134523599Y-88222421D01*
X134464925Y-88138626D01*
X134464925Y-88138625D01*
X133833076Y-88770475D01*
X133809493Y-88690156D01*
X133731761Y-88569202D01*
X133623100Y-88475048D01*
X133492315Y-88415320D01*
X133482533Y-88413913D01*
X134111373Y-87785073D01*
X134034969Y-87731576D01*
X133991344Y-87676999D01*
X133984150Y-87607501D01*
X134015672Y-87545146D01*
X134034968Y-87528425D01*
X134111373Y-87474925D01*
X133482533Y-86846086D01*
X133492315Y-86844680D01*
X133623100Y-86784952D01*
X133731761Y-86690798D01*
X133809493Y-86569844D01*
X133833076Y-86489524D01*
X134464925Y-87121373D01*
X134464926Y-87121373D01*
X134523598Y-87037582D01*
X134523600Y-87037578D01*
X134623429Y-86823492D01*
X134623433Y-86823483D01*
X134684567Y-86595326D01*
X134684569Y-86595315D01*
X134705157Y-86360001D01*
X134705157Y-86359998D01*
X134684569Y-86124684D01*
X134684567Y-86124673D01*
X134623433Y-85896516D01*
X134623429Y-85896507D01*
X134523600Y-85682423D01*
X134523599Y-85682421D01*
X134464925Y-85598626D01*
X134464925Y-85598625D01*
X133833076Y-86230475D01*
X133809493Y-86150156D01*
X133731761Y-86029202D01*
X133623100Y-85935048D01*
X133492315Y-85875320D01*
X133482533Y-85873913D01*
X134111373Y-85245073D01*
X134034969Y-85191576D01*
X133991344Y-85136999D01*
X133984150Y-85067501D01*
X134015672Y-85005146D01*
X134034968Y-84988425D01*
X134111373Y-84934925D01*
X133482533Y-84306086D01*
X133492315Y-84304680D01*
X133623100Y-84244952D01*
X133731761Y-84150798D01*
X133809493Y-84029844D01*
X133833076Y-83949524D01*
X134464925Y-84581373D01*
X134464926Y-84581373D01*
X134523598Y-84497582D01*
X134523600Y-84497578D01*
X134623429Y-84283492D01*
X134623433Y-84283483D01*
X134684567Y-84055326D01*
X134684569Y-84055315D01*
X134705157Y-83820001D01*
X134705157Y-83819998D01*
X134684569Y-83584684D01*
X134684567Y-83584673D01*
X134623433Y-83356516D01*
X134623429Y-83356507D01*
X134523600Y-83142423D01*
X134523599Y-83142421D01*
X134464925Y-83058626D01*
X134464925Y-83058625D01*
X133833076Y-83690475D01*
X133809493Y-83610156D01*
X133731761Y-83489202D01*
X133623100Y-83395048D01*
X133492315Y-83335320D01*
X133482533Y-83333913D01*
X134111373Y-82705073D01*
X134034969Y-82651576D01*
X133991344Y-82596999D01*
X133984150Y-82527501D01*
X134015672Y-82465146D01*
X134034968Y-82448425D01*
X134111373Y-82394925D01*
X133482533Y-81766086D01*
X133492315Y-81764680D01*
X133623100Y-81704952D01*
X133731761Y-81610798D01*
X133809493Y-81489844D01*
X133833076Y-81409524D01*
X134464925Y-82041373D01*
X134464926Y-82041373D01*
X134523598Y-81957582D01*
X134523600Y-81957578D01*
X134623429Y-81743492D01*
X134623433Y-81743483D01*
X134684567Y-81515326D01*
X134684569Y-81515315D01*
X134705157Y-81280001D01*
X134705157Y-81279998D01*
X134684569Y-81044684D01*
X134684567Y-81044673D01*
X134623433Y-80816516D01*
X134623429Y-80816507D01*
X134523600Y-80602423D01*
X134523599Y-80602421D01*
X134464925Y-80518626D01*
X134464925Y-80518625D01*
X133833076Y-81150475D01*
X133809493Y-81070156D01*
X133731761Y-80949202D01*
X133623100Y-80855048D01*
X133492315Y-80795320D01*
X133482533Y-80793913D01*
X134111373Y-80165073D01*
X134034969Y-80111576D01*
X133991344Y-80056999D01*
X133984150Y-79987501D01*
X134015672Y-79925146D01*
X134034968Y-79908425D01*
X134111373Y-79854925D01*
X133482533Y-79226086D01*
X133492315Y-79224680D01*
X133623100Y-79164952D01*
X133731761Y-79070798D01*
X133809493Y-78949844D01*
X133833076Y-78869524D01*
X134464925Y-79501373D01*
X134464926Y-79501373D01*
X134523598Y-79417582D01*
X134523600Y-79417578D01*
X134623429Y-79203492D01*
X134623433Y-79203483D01*
X134684567Y-78975326D01*
X134684569Y-78975315D01*
X134705157Y-78740001D01*
X134705157Y-78739998D01*
X134684569Y-78504684D01*
X134684567Y-78504673D01*
X134623433Y-78276516D01*
X134623429Y-78276507D01*
X134523600Y-78062423D01*
X134523599Y-78062421D01*
X134464925Y-77978626D01*
X134464925Y-77978625D01*
X133833076Y-78610475D01*
X133809493Y-78530156D01*
X133731761Y-78409202D01*
X133623100Y-78315048D01*
X133492315Y-78255320D01*
X133482533Y-78253913D01*
X134111373Y-77625073D01*
X134034969Y-77571576D01*
X133991344Y-77516999D01*
X133984150Y-77447501D01*
X134015672Y-77385146D01*
X134034968Y-77368425D01*
X134111373Y-77314925D01*
X133482533Y-76686086D01*
X133492315Y-76684680D01*
X133623100Y-76624952D01*
X133731761Y-76530798D01*
X133809493Y-76409844D01*
X133833076Y-76329524D01*
X134464925Y-76961373D01*
X134464926Y-76961373D01*
X134523598Y-76877582D01*
X134523600Y-76877578D01*
X134623429Y-76663492D01*
X134623433Y-76663483D01*
X134684567Y-76435326D01*
X134684569Y-76435315D01*
X134705157Y-76200001D01*
X134705157Y-76199998D01*
X134684569Y-75964684D01*
X134684567Y-75964673D01*
X134623433Y-75736516D01*
X134623429Y-75736507D01*
X134523600Y-75522423D01*
X134523599Y-75522421D01*
X134464925Y-75438626D01*
X134464925Y-75438625D01*
X133833076Y-76070475D01*
X133809493Y-75990156D01*
X133731761Y-75869202D01*
X133623100Y-75775048D01*
X133492315Y-75715320D01*
X133482533Y-75713913D01*
X134111373Y-75085073D01*
X134111373Y-75085072D01*
X134035405Y-75031880D01*
X133991780Y-74977304D01*
X133984586Y-74907805D01*
X134016108Y-74845451D01*
X134035399Y-74828734D01*
X134221401Y-74698495D01*
X134388495Y-74531401D01*
X134524035Y-74337830D01*
X134623903Y-74123663D01*
X134685063Y-73895408D01*
X134705659Y-73660000D01*
X134685063Y-73424592D01*
X134623903Y-73196337D01*
X134524035Y-72982171D01*
X134391527Y-72792928D01*
X134388494Y-72788597D01*
X134221402Y-72621506D01*
X134221401Y-72621505D01*
X134028376Y-72486347D01*
X133984751Y-72431770D01*
X133975500Y-72384772D01*
X133975500Y-71202737D01*
X133977224Y-71187123D01*
X133976938Y-71187096D01*
X133977672Y-71179333D01*
X133975500Y-71110203D01*
X133975500Y-71080651D01*
X133975500Y-71080650D01*
X133974629Y-71073759D01*
X133974172Y-71067945D01*
X133972709Y-71021372D01*
X133967122Y-71002144D01*
X133963174Y-70983084D01*
X133960664Y-70963208D01*
X133943507Y-70919875D01*
X133941619Y-70914359D01*
X133928619Y-70869612D01*
X133918418Y-70852363D01*
X133909860Y-70834894D01*
X133902486Y-70816268D01*
X133902483Y-70816264D01*
X133902483Y-70816263D01*
X133875098Y-70778571D01*
X133871890Y-70773687D01*
X133848172Y-70733582D01*
X133848163Y-70733571D01*
X133834005Y-70719413D01*
X133821370Y-70704620D01*
X133809593Y-70688412D01*
X133773693Y-70658713D01*
X133769381Y-70654790D01*
X132580803Y-69466212D01*
X132570980Y-69453950D01*
X132570759Y-69454134D01*
X132565786Y-69448123D01*
X132547159Y-69430631D01*
X132515364Y-69400773D01*
X132504919Y-69390328D01*
X132494475Y-69379883D01*
X132488986Y-69375625D01*
X132484561Y-69371847D01*
X132450582Y-69339938D01*
X132450580Y-69339936D01*
X132450577Y-69339935D01*
X132433029Y-69330288D01*
X132416763Y-69319604D01*
X132400933Y-69307325D01*
X132358168Y-69288818D01*
X132352922Y-69286248D01*
X132312093Y-69263803D01*
X132312092Y-69263802D01*
X132292693Y-69258822D01*
X132274281Y-69252518D01*
X132255898Y-69244562D01*
X132255892Y-69244560D01*
X132209874Y-69237272D01*
X132204152Y-69236087D01*
X132159021Y-69224500D01*
X132159019Y-69224500D01*
X132138984Y-69224500D01*
X132119586Y-69222973D01*
X132105695Y-69220773D01*
X132099805Y-69219840D01*
X132099804Y-69219840D01*
X132053416Y-69224225D01*
X132047578Y-69224500D01*
X130880847Y-69224500D01*
X130857615Y-69222304D01*
X130849588Y-69220773D01*
X130849586Y-69220773D01*
X130840633Y-69221336D01*
X130792275Y-69224378D01*
X130788403Y-69224500D01*
X119876743Y-69224500D01*
X119861122Y-69222775D01*
X119861095Y-69223061D01*
X119853333Y-69222326D01*
X119784172Y-69224500D01*
X119754649Y-69224500D01*
X119747778Y-69225367D01*
X119741959Y-69225825D01*
X119695374Y-69227289D01*
X119695368Y-69227290D01*
X119676126Y-69232880D01*
X119657087Y-69236823D01*
X119637217Y-69239334D01*
X119637203Y-69239337D01*
X119593883Y-69256488D01*
X119588358Y-69258380D01*
X119543613Y-69271380D01*
X119543610Y-69271381D01*
X119526366Y-69281579D01*
X119508905Y-69290133D01*
X119490274Y-69297510D01*
X119490262Y-69297517D01*
X119452570Y-69324902D01*
X119447687Y-69328109D01*
X119407580Y-69351829D01*
X119393414Y-69365995D01*
X119378624Y-69378627D01*
X119362414Y-69390404D01*
X119362411Y-69390407D01*
X119332710Y-69426309D01*
X119328777Y-69430631D01*
X112646208Y-76113199D01*
X112633951Y-76123020D01*
X112634134Y-76123241D01*
X112628123Y-76128213D01*
X112580772Y-76178636D01*
X112559889Y-76199519D01*
X112559877Y-76199532D01*
X112555621Y-76205017D01*
X112551837Y-76209447D01*
X112519937Y-76243418D01*
X112519936Y-76243420D01*
X112510284Y-76260976D01*
X112499610Y-76277226D01*
X112487329Y-76293061D01*
X112487324Y-76293068D01*
X112468815Y-76335838D01*
X112466245Y-76341084D01*
X112443803Y-76381906D01*
X112438822Y-76401307D01*
X112432521Y-76419710D01*
X112424562Y-76438102D01*
X112424561Y-76438105D01*
X112417271Y-76484127D01*
X112416087Y-76489846D01*
X112404501Y-76534972D01*
X112404500Y-76534982D01*
X112404500Y-76555016D01*
X112402973Y-76574415D01*
X112399840Y-76594194D01*
X112399840Y-76594195D01*
X109220500Y-76594195D01*
X109220500Y-64770000D01*
X120254935Y-64770000D01*
X120275185Y-65182176D01*
X120335735Y-65590373D01*
X120436007Y-65990676D01*
X120575019Y-66379189D01*
X120575027Y-66379209D01*
X120751466Y-66752257D01*
X120963614Y-67106206D01*
X121209441Y-67437664D01*
X121318478Y-67557967D01*
X122985790Y-65890655D01*
X123124616Y-66057472D01*
X123326305Y-66238185D01*
X123337777Y-66245774D01*
X121672031Y-67911520D01*
X121792335Y-68020558D01*
X122123793Y-68266385D01*
X122477742Y-68478533D01*
X122850790Y-68654972D01*
X122850810Y-68654980D01*
X123239323Y-68793992D01*
X123639626Y-68894264D01*
X124047823Y-68954814D01*
X124460000Y-68975064D01*
X124872176Y-68954814D01*
X125280373Y-68894264D01*
X125680676Y-68793992D01*
X126069189Y-68654980D01*
X126069209Y-68654972D01*
X126442257Y-68478533D01*
X126796206Y-68266385D01*
X127127670Y-68020554D01*
X127247967Y-67911521D01*
X127247967Y-67911519D01*
X125579410Y-66242963D01*
X125697842Y-66151514D01*
X125885800Y-65956560D01*
X125933474Y-65889922D01*
X127601519Y-67557967D01*
X127601521Y-67557967D01*
X127710554Y-67437670D01*
X127956385Y-67106206D01*
X128168533Y-66752257D01*
X128344972Y-66379209D01*
X128344980Y-66379189D01*
X128483992Y-65990676D01*
X128584264Y-65590373D01*
X128644814Y-65182176D01*
X128665064Y-64770000D01*
X128644814Y-64357823D01*
X128584264Y-63949626D01*
X128483992Y-63549323D01*
X128344980Y-63160810D01*
X128344972Y-63160790D01*
X128168533Y-62787742D01*
X127956385Y-62433793D01*
X127710558Y-62102335D01*
X127601520Y-61982031D01*
X125934208Y-63649343D01*
X125795384Y-63482528D01*
X125593695Y-63301815D01*
X125582221Y-63294223D01*
X127247967Y-61628478D01*
X127127664Y-61519441D01*
X126796206Y-61273614D01*
X126442257Y-61061466D01*
X126069209Y-60885027D01*
X126069189Y-60885019D01*
X125680676Y-60746007D01*
X125280373Y-60645735D01*
X124872176Y-60585185D01*
X124460000Y-60564935D01*
X124047823Y-60585185D01*
X123639626Y-60645735D01*
X123239323Y-60746007D01*
X122850810Y-60885019D01*
X122850790Y-60885027D01*
X122477742Y-61061466D01*
X122123793Y-61273614D01*
X121792329Y-61519445D01*
X121672031Y-61628477D01*
X121672031Y-61628478D01*
X123340589Y-63297036D01*
X123222158Y-63388486D01*
X123034200Y-63583440D01*
X122986524Y-63650077D01*
X121318478Y-61982031D01*
X121318477Y-61982031D01*
X121209445Y-62102329D01*
X120963614Y-62433793D01*
X120751466Y-62787742D01*
X120575027Y-63160790D01*
X120575019Y-63160810D01*
X120436007Y-63549323D01*
X120335735Y-63949626D01*
X120275185Y-64357823D01*
X120254935Y-64770000D01*
X109220500Y-64770000D01*
X109220500Y-59814500D01*
X109240185Y-59747461D01*
X109292989Y-59701706D01*
X109344500Y-59690500D01*
X139575500Y-59690500D01*
X139642539Y-59710185D01*
G37*
%TD.AperFunction*%
%TD*%
M02*
