%TF.GenerationSoftware,KiCad,Pcbnew,7.0.8*%
%TF.CreationDate,2023-10-01T20:09:57-07:00*%
%TF.ProjectId,jtag-breakout,6a746167-2d62-4726-9561-6b6f75742e6b,rev?*%
%TF.SameCoordinates,Original*%
%TF.FileFunction,Legend,Top*%
%TF.FilePolarity,Positive*%
%FSLAX46Y46*%
G04 Gerber Fmt 4.6, Leading zero omitted, Abs format (unit mm)*
G04 Created by KiCad (PCBNEW 7.0.8) date 2023-10-01 20:09:57*
%MOMM*%
%LPD*%
G01*
G04 APERTURE LIST*
%ADD10C,0.150000*%
%ADD11C,0.120000*%
G04 APERTURE END LIST*
D10*
X138299819Y-101898220D02*
X137299819Y-101898220D01*
X138299819Y-101469649D02*
X137776009Y-101469649D01*
X137776009Y-101469649D02*
X137680771Y-101517268D01*
X137680771Y-101517268D02*
X137633152Y-101612506D01*
X137633152Y-101612506D02*
X137633152Y-101755363D01*
X137633152Y-101755363D02*
X137680771Y-101850601D01*
X137680771Y-101850601D02*
X137728390Y-101898220D01*
X137633152Y-101136315D02*
X137633152Y-100755363D01*
X137299819Y-100993458D02*
X138156961Y-100993458D01*
X138156961Y-100993458D02*
X138252200Y-100945839D01*
X138252200Y-100945839D02*
X138299819Y-100850601D01*
X138299819Y-100850601D02*
X138299819Y-100755363D01*
X137633152Y-100564886D02*
X137633152Y-100183934D01*
X137299819Y-100422029D02*
X138156961Y-100422029D01*
X138156961Y-100422029D02*
X138252200Y-100374410D01*
X138252200Y-100374410D02*
X138299819Y-100279172D01*
X138299819Y-100279172D02*
X138299819Y-100183934D01*
X137633152Y-99850600D02*
X138633152Y-99850600D01*
X137680771Y-99850600D02*
X137633152Y-99755362D01*
X137633152Y-99755362D02*
X137633152Y-99564886D01*
X137633152Y-99564886D02*
X137680771Y-99469648D01*
X137680771Y-99469648D02*
X137728390Y-99422029D01*
X137728390Y-99422029D02*
X137823628Y-99374410D01*
X137823628Y-99374410D02*
X138109342Y-99374410D01*
X138109342Y-99374410D02*
X138204580Y-99422029D01*
X138204580Y-99422029D02*
X138252200Y-99469648D01*
X138252200Y-99469648D02*
X138299819Y-99564886D01*
X138299819Y-99564886D02*
X138299819Y-99755362D01*
X138299819Y-99755362D02*
X138252200Y-99850600D01*
X138252200Y-98993457D02*
X138299819Y-98898219D01*
X138299819Y-98898219D02*
X138299819Y-98707743D01*
X138299819Y-98707743D02*
X138252200Y-98612505D01*
X138252200Y-98612505D02*
X138156961Y-98564886D01*
X138156961Y-98564886D02*
X138109342Y-98564886D01*
X138109342Y-98564886D02*
X138014104Y-98612505D01*
X138014104Y-98612505D02*
X137966485Y-98707743D01*
X137966485Y-98707743D02*
X137966485Y-98850600D01*
X137966485Y-98850600D02*
X137918866Y-98945838D01*
X137918866Y-98945838D02*
X137823628Y-98993457D01*
X137823628Y-98993457D02*
X137776009Y-98993457D01*
X137776009Y-98993457D02*
X137680771Y-98945838D01*
X137680771Y-98945838D02*
X137633152Y-98850600D01*
X137633152Y-98850600D02*
X137633152Y-98707743D01*
X137633152Y-98707743D02*
X137680771Y-98612505D01*
X138204580Y-98136314D02*
X138252200Y-98088695D01*
X138252200Y-98088695D02*
X138299819Y-98136314D01*
X138299819Y-98136314D02*
X138252200Y-98183933D01*
X138252200Y-98183933D02*
X138204580Y-98136314D01*
X138204580Y-98136314D02*
X138299819Y-98136314D01*
X137680771Y-98136314D02*
X137728390Y-98088695D01*
X137728390Y-98088695D02*
X137776009Y-98136314D01*
X137776009Y-98136314D02*
X137728390Y-98183933D01*
X137728390Y-98183933D02*
X137680771Y-98136314D01*
X137680771Y-98136314D02*
X137776009Y-98136314D01*
X137252200Y-96945839D02*
X138537914Y-97802981D01*
X137252200Y-95898220D02*
X138537914Y-96755362D01*
X137633152Y-95136315D02*
X138442676Y-95136315D01*
X138442676Y-95136315D02*
X138537914Y-95183934D01*
X138537914Y-95183934D02*
X138585533Y-95231553D01*
X138585533Y-95231553D02*
X138633152Y-95326791D01*
X138633152Y-95326791D02*
X138633152Y-95469648D01*
X138633152Y-95469648D02*
X138585533Y-95564886D01*
X138252200Y-95136315D02*
X138299819Y-95231553D01*
X138299819Y-95231553D02*
X138299819Y-95422029D01*
X138299819Y-95422029D02*
X138252200Y-95517267D01*
X138252200Y-95517267D02*
X138204580Y-95564886D01*
X138204580Y-95564886D02*
X138109342Y-95612505D01*
X138109342Y-95612505D02*
X137823628Y-95612505D01*
X137823628Y-95612505D02*
X137728390Y-95564886D01*
X137728390Y-95564886D02*
X137680771Y-95517267D01*
X137680771Y-95517267D02*
X137633152Y-95422029D01*
X137633152Y-95422029D02*
X137633152Y-95231553D01*
X137633152Y-95231553D02*
X137680771Y-95136315D01*
X138299819Y-94660124D02*
X137633152Y-94660124D01*
X137299819Y-94660124D02*
X137347438Y-94707743D01*
X137347438Y-94707743D02*
X137395057Y-94660124D01*
X137395057Y-94660124D02*
X137347438Y-94612505D01*
X137347438Y-94612505D02*
X137299819Y-94660124D01*
X137299819Y-94660124D02*
X137395057Y-94660124D01*
X137633152Y-94326791D02*
X137633152Y-93945839D01*
X137299819Y-94183934D02*
X138156961Y-94183934D01*
X138156961Y-94183934D02*
X138252200Y-94136315D01*
X138252200Y-94136315D02*
X138299819Y-94041077D01*
X138299819Y-94041077D02*
X138299819Y-93945839D01*
X138299819Y-93612505D02*
X137299819Y-93612505D01*
X138299819Y-93183934D02*
X137776009Y-93183934D01*
X137776009Y-93183934D02*
X137680771Y-93231553D01*
X137680771Y-93231553D02*
X137633152Y-93326791D01*
X137633152Y-93326791D02*
X137633152Y-93469648D01*
X137633152Y-93469648D02*
X137680771Y-93564886D01*
X137680771Y-93564886D02*
X137728390Y-93612505D01*
X137633152Y-92279172D02*
X138299819Y-92279172D01*
X137633152Y-92707743D02*
X138156961Y-92707743D01*
X138156961Y-92707743D02*
X138252200Y-92660124D01*
X138252200Y-92660124D02*
X138299819Y-92564886D01*
X138299819Y-92564886D02*
X138299819Y-92422029D01*
X138299819Y-92422029D02*
X138252200Y-92326791D01*
X138252200Y-92326791D02*
X138204580Y-92279172D01*
X138299819Y-91802981D02*
X137299819Y-91802981D01*
X137680771Y-91802981D02*
X137633152Y-91707743D01*
X137633152Y-91707743D02*
X137633152Y-91517267D01*
X137633152Y-91517267D02*
X137680771Y-91422029D01*
X137680771Y-91422029D02*
X137728390Y-91374410D01*
X137728390Y-91374410D02*
X137823628Y-91326791D01*
X137823628Y-91326791D02*
X138109342Y-91326791D01*
X138109342Y-91326791D02*
X138204580Y-91374410D01*
X138204580Y-91374410D02*
X138252200Y-91422029D01*
X138252200Y-91422029D02*
X138299819Y-91517267D01*
X138299819Y-91517267D02*
X138299819Y-91707743D01*
X138299819Y-91707743D02*
X138252200Y-91802981D01*
X138204580Y-90898219D02*
X138252200Y-90850600D01*
X138252200Y-90850600D02*
X138299819Y-90898219D01*
X138299819Y-90898219D02*
X138252200Y-90945838D01*
X138252200Y-90945838D02*
X138204580Y-90898219D01*
X138204580Y-90898219D02*
X138299819Y-90898219D01*
X138252200Y-89993458D02*
X138299819Y-90088696D01*
X138299819Y-90088696D02*
X138299819Y-90279172D01*
X138299819Y-90279172D02*
X138252200Y-90374410D01*
X138252200Y-90374410D02*
X138204580Y-90422029D01*
X138204580Y-90422029D02*
X138109342Y-90469648D01*
X138109342Y-90469648D02*
X137823628Y-90469648D01*
X137823628Y-90469648D02*
X137728390Y-90422029D01*
X137728390Y-90422029D02*
X137680771Y-90374410D01*
X137680771Y-90374410D02*
X137633152Y-90279172D01*
X137633152Y-90279172D02*
X137633152Y-90088696D01*
X137633152Y-90088696D02*
X137680771Y-89993458D01*
X138299819Y-89422029D02*
X138252200Y-89517267D01*
X138252200Y-89517267D02*
X138204580Y-89564886D01*
X138204580Y-89564886D02*
X138109342Y-89612505D01*
X138109342Y-89612505D02*
X137823628Y-89612505D01*
X137823628Y-89612505D02*
X137728390Y-89564886D01*
X137728390Y-89564886D02*
X137680771Y-89517267D01*
X137680771Y-89517267D02*
X137633152Y-89422029D01*
X137633152Y-89422029D02*
X137633152Y-89279172D01*
X137633152Y-89279172D02*
X137680771Y-89183934D01*
X137680771Y-89183934D02*
X137728390Y-89136315D01*
X137728390Y-89136315D02*
X137823628Y-89088696D01*
X137823628Y-89088696D02*
X138109342Y-89088696D01*
X138109342Y-89088696D02*
X138204580Y-89136315D01*
X138204580Y-89136315D02*
X138252200Y-89183934D01*
X138252200Y-89183934D02*
X138299819Y-89279172D01*
X138299819Y-89279172D02*
X138299819Y-89422029D01*
X138299819Y-88660124D02*
X137633152Y-88660124D01*
X137728390Y-88660124D02*
X137680771Y-88612505D01*
X137680771Y-88612505D02*
X137633152Y-88517267D01*
X137633152Y-88517267D02*
X137633152Y-88374410D01*
X137633152Y-88374410D02*
X137680771Y-88279172D01*
X137680771Y-88279172D02*
X137776009Y-88231553D01*
X137776009Y-88231553D02*
X138299819Y-88231553D01*
X137776009Y-88231553D02*
X137680771Y-88183934D01*
X137680771Y-88183934D02*
X137633152Y-88088696D01*
X137633152Y-88088696D02*
X137633152Y-87945839D01*
X137633152Y-87945839D02*
X137680771Y-87850600D01*
X137680771Y-87850600D02*
X137776009Y-87802981D01*
X137776009Y-87802981D02*
X138299819Y-87802981D01*
X137252200Y-86612506D02*
X138537914Y-87469648D01*
X138299819Y-86279172D02*
X137299819Y-86279172D01*
X138299819Y-85850601D02*
X137776009Y-85850601D01*
X137776009Y-85850601D02*
X137680771Y-85898220D01*
X137680771Y-85898220D02*
X137633152Y-85993458D01*
X137633152Y-85993458D02*
X137633152Y-86136315D01*
X137633152Y-86136315D02*
X137680771Y-86231553D01*
X137680771Y-86231553D02*
X137728390Y-86279172D01*
X138299819Y-85374410D02*
X137299819Y-85374410D01*
X138299819Y-84945839D02*
X137776009Y-84945839D01*
X137776009Y-84945839D02*
X137680771Y-84993458D01*
X137680771Y-84993458D02*
X137633152Y-85088696D01*
X137633152Y-85088696D02*
X137633152Y-85231553D01*
X137633152Y-85231553D02*
X137680771Y-85326791D01*
X137680771Y-85326791D02*
X137728390Y-85374410D01*
X138299819Y-84041077D02*
X137776009Y-84041077D01*
X137776009Y-84041077D02*
X137680771Y-84088696D01*
X137680771Y-84088696D02*
X137633152Y-84183934D01*
X137633152Y-84183934D02*
X137633152Y-84374410D01*
X137633152Y-84374410D02*
X137680771Y-84469648D01*
X138252200Y-84041077D02*
X138299819Y-84136315D01*
X138299819Y-84136315D02*
X138299819Y-84374410D01*
X138299819Y-84374410D02*
X138252200Y-84469648D01*
X138252200Y-84469648D02*
X138156961Y-84517267D01*
X138156961Y-84517267D02*
X138061723Y-84517267D01*
X138061723Y-84517267D02*
X137966485Y-84469648D01*
X137966485Y-84469648D02*
X137918866Y-84374410D01*
X137918866Y-84374410D02*
X137918866Y-84136315D01*
X137918866Y-84136315D02*
X137871247Y-84041077D01*
X138299819Y-83564886D02*
X137633152Y-83564886D01*
X137823628Y-83564886D02*
X137728390Y-83517267D01*
X137728390Y-83517267D02*
X137680771Y-83469648D01*
X137680771Y-83469648D02*
X137633152Y-83374410D01*
X137633152Y-83374410D02*
X137633152Y-83279172D01*
X137633152Y-83088695D02*
X137633152Y-82707743D01*
X137299819Y-82945838D02*
X138156961Y-82945838D01*
X138156961Y-82945838D02*
X138252200Y-82898219D01*
X138252200Y-82898219D02*
X138299819Y-82802981D01*
X138299819Y-82802981D02*
X138299819Y-82707743D01*
X138252200Y-81993457D02*
X138299819Y-82088695D01*
X138299819Y-82088695D02*
X138299819Y-82279171D01*
X138299819Y-82279171D02*
X138252200Y-82374409D01*
X138252200Y-82374409D02*
X138156961Y-82422028D01*
X138156961Y-82422028D02*
X137776009Y-82422028D01*
X137776009Y-82422028D02*
X137680771Y-82374409D01*
X137680771Y-82374409D02*
X137633152Y-82279171D01*
X137633152Y-82279171D02*
X137633152Y-82088695D01*
X137633152Y-82088695D02*
X137680771Y-81993457D01*
X137680771Y-81993457D02*
X137776009Y-81945838D01*
X137776009Y-81945838D02*
X137871247Y-81945838D01*
X137871247Y-81945838D02*
X137966485Y-82422028D01*
X137252200Y-80802981D02*
X138537914Y-81660123D01*
X137633152Y-80469647D02*
X138490295Y-80469647D01*
X138490295Y-80469647D02*
X138585533Y-80517266D01*
X138585533Y-80517266D02*
X138633152Y-80612504D01*
X138633152Y-80612504D02*
X138633152Y-80660123D01*
X137299819Y-80469647D02*
X137347438Y-80517266D01*
X137347438Y-80517266D02*
X137395057Y-80469647D01*
X137395057Y-80469647D02*
X137347438Y-80422028D01*
X137347438Y-80422028D02*
X137299819Y-80469647D01*
X137299819Y-80469647D02*
X137395057Y-80469647D01*
X137633152Y-80136314D02*
X137633152Y-79755362D01*
X137299819Y-79993457D02*
X138156961Y-79993457D01*
X138156961Y-79993457D02*
X138252200Y-79945838D01*
X138252200Y-79945838D02*
X138299819Y-79850600D01*
X138299819Y-79850600D02*
X138299819Y-79755362D01*
X138299819Y-78993457D02*
X137776009Y-78993457D01*
X137776009Y-78993457D02*
X137680771Y-79041076D01*
X137680771Y-79041076D02*
X137633152Y-79136314D01*
X137633152Y-79136314D02*
X137633152Y-79326790D01*
X137633152Y-79326790D02*
X137680771Y-79422028D01*
X138252200Y-78993457D02*
X138299819Y-79088695D01*
X138299819Y-79088695D02*
X138299819Y-79326790D01*
X138299819Y-79326790D02*
X138252200Y-79422028D01*
X138252200Y-79422028D02*
X138156961Y-79469647D01*
X138156961Y-79469647D02*
X138061723Y-79469647D01*
X138061723Y-79469647D02*
X137966485Y-79422028D01*
X137966485Y-79422028D02*
X137918866Y-79326790D01*
X137918866Y-79326790D02*
X137918866Y-79088695D01*
X137918866Y-79088695D02*
X137871247Y-78993457D01*
X137633152Y-78088695D02*
X138442676Y-78088695D01*
X138442676Y-78088695D02*
X138537914Y-78136314D01*
X138537914Y-78136314D02*
X138585533Y-78183933D01*
X138585533Y-78183933D02*
X138633152Y-78279171D01*
X138633152Y-78279171D02*
X138633152Y-78422028D01*
X138633152Y-78422028D02*
X138585533Y-78517266D01*
X138252200Y-78088695D02*
X138299819Y-78183933D01*
X138299819Y-78183933D02*
X138299819Y-78374409D01*
X138299819Y-78374409D02*
X138252200Y-78469647D01*
X138252200Y-78469647D02*
X138204580Y-78517266D01*
X138204580Y-78517266D02*
X138109342Y-78564885D01*
X138109342Y-78564885D02*
X137823628Y-78564885D01*
X137823628Y-78564885D02*
X137728390Y-78517266D01*
X137728390Y-78517266D02*
X137680771Y-78469647D01*
X137680771Y-78469647D02*
X137633152Y-78374409D01*
X137633152Y-78374409D02*
X137633152Y-78183933D01*
X137633152Y-78183933D02*
X137680771Y-78088695D01*
X137918866Y-77612504D02*
X137918866Y-76850600D01*
X138299819Y-76374409D02*
X137299819Y-76374409D01*
X137680771Y-76374409D02*
X137633152Y-76279171D01*
X137633152Y-76279171D02*
X137633152Y-76088695D01*
X137633152Y-76088695D02*
X137680771Y-75993457D01*
X137680771Y-75993457D02*
X137728390Y-75945838D01*
X137728390Y-75945838D02*
X137823628Y-75898219D01*
X137823628Y-75898219D02*
X138109342Y-75898219D01*
X138109342Y-75898219D02*
X138204580Y-75945838D01*
X138204580Y-75945838D02*
X138252200Y-75993457D01*
X138252200Y-75993457D02*
X138299819Y-76088695D01*
X138299819Y-76088695D02*
X138299819Y-76279171D01*
X138299819Y-76279171D02*
X138252200Y-76374409D01*
X138299819Y-75469647D02*
X137633152Y-75469647D01*
X137823628Y-75469647D02*
X137728390Y-75422028D01*
X137728390Y-75422028D02*
X137680771Y-75374409D01*
X137680771Y-75374409D02*
X137633152Y-75279171D01*
X137633152Y-75279171D02*
X137633152Y-75183933D01*
X138252200Y-74469647D02*
X138299819Y-74564885D01*
X138299819Y-74564885D02*
X138299819Y-74755361D01*
X138299819Y-74755361D02*
X138252200Y-74850599D01*
X138252200Y-74850599D02*
X138156961Y-74898218D01*
X138156961Y-74898218D02*
X137776009Y-74898218D01*
X137776009Y-74898218D02*
X137680771Y-74850599D01*
X137680771Y-74850599D02*
X137633152Y-74755361D01*
X137633152Y-74755361D02*
X137633152Y-74564885D01*
X137633152Y-74564885D02*
X137680771Y-74469647D01*
X137680771Y-74469647D02*
X137776009Y-74422028D01*
X137776009Y-74422028D02*
X137871247Y-74422028D01*
X137871247Y-74422028D02*
X137966485Y-74898218D01*
X138299819Y-73564885D02*
X137776009Y-73564885D01*
X137776009Y-73564885D02*
X137680771Y-73612504D01*
X137680771Y-73612504D02*
X137633152Y-73707742D01*
X137633152Y-73707742D02*
X137633152Y-73898218D01*
X137633152Y-73898218D02*
X137680771Y-73993456D01*
X138252200Y-73564885D02*
X138299819Y-73660123D01*
X138299819Y-73660123D02*
X138299819Y-73898218D01*
X138299819Y-73898218D02*
X138252200Y-73993456D01*
X138252200Y-73993456D02*
X138156961Y-74041075D01*
X138156961Y-74041075D02*
X138061723Y-74041075D01*
X138061723Y-74041075D02*
X137966485Y-73993456D01*
X137966485Y-73993456D02*
X137918866Y-73898218D01*
X137918866Y-73898218D02*
X137918866Y-73660123D01*
X137918866Y-73660123D02*
X137871247Y-73564885D01*
X138299819Y-73088694D02*
X137299819Y-73088694D01*
X137918866Y-72993456D02*
X138299819Y-72707742D01*
X137633152Y-72707742D02*
X138014104Y-73088694D01*
X138299819Y-72136313D02*
X138252200Y-72231551D01*
X138252200Y-72231551D02*
X138204580Y-72279170D01*
X138204580Y-72279170D02*
X138109342Y-72326789D01*
X138109342Y-72326789D02*
X137823628Y-72326789D01*
X137823628Y-72326789D02*
X137728390Y-72279170D01*
X137728390Y-72279170D02*
X137680771Y-72231551D01*
X137680771Y-72231551D02*
X137633152Y-72136313D01*
X137633152Y-72136313D02*
X137633152Y-71993456D01*
X137633152Y-71993456D02*
X137680771Y-71898218D01*
X137680771Y-71898218D02*
X137728390Y-71850599D01*
X137728390Y-71850599D02*
X137823628Y-71802980D01*
X137823628Y-71802980D02*
X138109342Y-71802980D01*
X138109342Y-71802980D02*
X138204580Y-71850599D01*
X138204580Y-71850599D02*
X138252200Y-71898218D01*
X138252200Y-71898218D02*
X138299819Y-71993456D01*
X138299819Y-71993456D02*
X138299819Y-72136313D01*
X137633152Y-70945837D02*
X138299819Y-70945837D01*
X137633152Y-71374408D02*
X138156961Y-71374408D01*
X138156961Y-71374408D02*
X138252200Y-71326789D01*
X138252200Y-71326789D02*
X138299819Y-71231551D01*
X138299819Y-71231551D02*
X138299819Y-71088694D01*
X138299819Y-71088694D02*
X138252200Y-70993456D01*
X138252200Y-70993456D02*
X138204580Y-70945837D01*
X137633152Y-70612503D02*
X137633152Y-70231551D01*
X137299819Y-70469646D02*
X138156961Y-70469646D01*
X138156961Y-70469646D02*
X138252200Y-70422027D01*
X138252200Y-70422027D02*
X138299819Y-70326789D01*
X138299819Y-70326789D02*
X138299819Y-70231551D01*
X117065588Y-70672438D02*
X116970350Y-70624819D01*
X116970350Y-70624819D02*
X116827493Y-70624819D01*
X116827493Y-70624819D02*
X116684636Y-70672438D01*
X116684636Y-70672438D02*
X116589398Y-70767676D01*
X116589398Y-70767676D02*
X116541779Y-70862914D01*
X116541779Y-70862914D02*
X116494160Y-71053390D01*
X116494160Y-71053390D02*
X116494160Y-71196247D01*
X116494160Y-71196247D02*
X116541779Y-71386723D01*
X116541779Y-71386723D02*
X116589398Y-71481961D01*
X116589398Y-71481961D02*
X116684636Y-71577200D01*
X116684636Y-71577200D02*
X116827493Y-71624819D01*
X116827493Y-71624819D02*
X116922731Y-71624819D01*
X116922731Y-71624819D02*
X117065588Y-71577200D01*
X117065588Y-71577200D02*
X117113207Y-71529580D01*
X117113207Y-71529580D02*
X117113207Y-71196247D01*
X117113207Y-71196247D02*
X116922731Y-71196247D01*
X117541779Y-71624819D02*
X117541779Y-70624819D01*
X117541779Y-70624819D02*
X118113207Y-71624819D01*
X118113207Y-71624819D02*
X118113207Y-70624819D01*
X118589398Y-71624819D02*
X118589398Y-70624819D01*
X118589398Y-70624819D02*
X118827493Y-70624819D01*
X118827493Y-70624819D02*
X118970350Y-70672438D01*
X118970350Y-70672438D02*
X119065588Y-70767676D01*
X119065588Y-70767676D02*
X119113207Y-70862914D01*
X119113207Y-70862914D02*
X119160826Y-71053390D01*
X119160826Y-71053390D02*
X119160826Y-71196247D01*
X119160826Y-71196247D02*
X119113207Y-71386723D01*
X119113207Y-71386723D02*
X119065588Y-71481961D01*
X119065588Y-71481961D02*
X118970350Y-71577200D01*
X118970350Y-71577200D02*
X118827493Y-71624819D01*
X118827493Y-71624819D02*
X118589398Y-71624819D01*
X117065588Y-73212438D02*
X116970350Y-73164819D01*
X116970350Y-73164819D02*
X116827493Y-73164819D01*
X116827493Y-73164819D02*
X116684636Y-73212438D01*
X116684636Y-73212438D02*
X116589398Y-73307676D01*
X116589398Y-73307676D02*
X116541779Y-73402914D01*
X116541779Y-73402914D02*
X116494160Y-73593390D01*
X116494160Y-73593390D02*
X116494160Y-73736247D01*
X116494160Y-73736247D02*
X116541779Y-73926723D01*
X116541779Y-73926723D02*
X116589398Y-74021961D01*
X116589398Y-74021961D02*
X116684636Y-74117200D01*
X116684636Y-74117200D02*
X116827493Y-74164819D01*
X116827493Y-74164819D02*
X116922731Y-74164819D01*
X116922731Y-74164819D02*
X117065588Y-74117200D01*
X117065588Y-74117200D02*
X117113207Y-74069580D01*
X117113207Y-74069580D02*
X117113207Y-73736247D01*
X117113207Y-73736247D02*
X116922731Y-73736247D01*
X117541779Y-74164819D02*
X117541779Y-73164819D01*
X117541779Y-73164819D02*
X118113207Y-74164819D01*
X118113207Y-74164819D02*
X118113207Y-73164819D01*
X118589398Y-74164819D02*
X118589398Y-73164819D01*
X118589398Y-73164819D02*
X118827493Y-73164819D01*
X118827493Y-73164819D02*
X118970350Y-73212438D01*
X118970350Y-73212438D02*
X119065588Y-73307676D01*
X119065588Y-73307676D02*
X119113207Y-73402914D01*
X119113207Y-73402914D02*
X119160826Y-73593390D01*
X119160826Y-73593390D02*
X119160826Y-73736247D01*
X119160826Y-73736247D02*
X119113207Y-73926723D01*
X119113207Y-73926723D02*
X119065588Y-74021961D01*
X119065588Y-74021961D02*
X118970350Y-74117200D01*
X118970350Y-74117200D02*
X118827493Y-74164819D01*
X118827493Y-74164819D02*
X118589398Y-74164819D01*
X114001779Y-76704819D02*
X114001779Y-75704819D01*
X114001779Y-75704819D02*
X114239874Y-75704819D01*
X114239874Y-75704819D02*
X114382731Y-75752438D01*
X114382731Y-75752438D02*
X114477969Y-75847676D01*
X114477969Y-75847676D02*
X114525588Y-75942914D01*
X114525588Y-75942914D02*
X114573207Y-76133390D01*
X114573207Y-76133390D02*
X114573207Y-76276247D01*
X114573207Y-76276247D02*
X114525588Y-76466723D01*
X114525588Y-76466723D02*
X114477969Y-76561961D01*
X114477969Y-76561961D02*
X114382731Y-76657200D01*
X114382731Y-76657200D02*
X114239874Y-76704819D01*
X114239874Y-76704819D02*
X114001779Y-76704819D01*
X115335112Y-76181009D02*
X115477969Y-76228628D01*
X115477969Y-76228628D02*
X115525588Y-76276247D01*
X115525588Y-76276247D02*
X115573207Y-76371485D01*
X115573207Y-76371485D02*
X115573207Y-76514342D01*
X115573207Y-76514342D02*
X115525588Y-76609580D01*
X115525588Y-76609580D02*
X115477969Y-76657200D01*
X115477969Y-76657200D02*
X115382731Y-76704819D01*
X115382731Y-76704819D02*
X115001779Y-76704819D01*
X115001779Y-76704819D02*
X115001779Y-75704819D01*
X115001779Y-75704819D02*
X115335112Y-75704819D01*
X115335112Y-75704819D02*
X115430350Y-75752438D01*
X115430350Y-75752438D02*
X115477969Y-75800057D01*
X115477969Y-75800057D02*
X115525588Y-75895295D01*
X115525588Y-75895295D02*
X115525588Y-75990533D01*
X115525588Y-75990533D02*
X115477969Y-76085771D01*
X115477969Y-76085771D02*
X115430350Y-76133390D01*
X115430350Y-76133390D02*
X115335112Y-76181009D01*
X115335112Y-76181009D02*
X115001779Y-76181009D01*
X116525588Y-75752438D02*
X116430350Y-75704819D01*
X116430350Y-75704819D02*
X116287493Y-75704819D01*
X116287493Y-75704819D02*
X116144636Y-75752438D01*
X116144636Y-75752438D02*
X116049398Y-75847676D01*
X116049398Y-75847676D02*
X116001779Y-75942914D01*
X116001779Y-75942914D02*
X115954160Y-76133390D01*
X115954160Y-76133390D02*
X115954160Y-76276247D01*
X115954160Y-76276247D02*
X116001779Y-76466723D01*
X116001779Y-76466723D02*
X116049398Y-76561961D01*
X116049398Y-76561961D02*
X116144636Y-76657200D01*
X116144636Y-76657200D02*
X116287493Y-76704819D01*
X116287493Y-76704819D02*
X116382731Y-76704819D01*
X116382731Y-76704819D02*
X116525588Y-76657200D01*
X116525588Y-76657200D02*
X116573207Y-76609580D01*
X116573207Y-76609580D02*
X116573207Y-76276247D01*
X116573207Y-76276247D02*
X116382731Y-76276247D01*
X116954160Y-76419104D02*
X117430350Y-76419104D01*
X116858922Y-76704819D02*
X117192255Y-75704819D01*
X117192255Y-75704819D02*
X117525588Y-76704819D01*
X118430350Y-76609580D02*
X118382731Y-76657200D01*
X118382731Y-76657200D02*
X118239874Y-76704819D01*
X118239874Y-76704819D02*
X118144636Y-76704819D01*
X118144636Y-76704819D02*
X118001779Y-76657200D01*
X118001779Y-76657200D02*
X117906541Y-76561961D01*
X117906541Y-76561961D02*
X117858922Y-76466723D01*
X117858922Y-76466723D02*
X117811303Y-76276247D01*
X117811303Y-76276247D02*
X117811303Y-76133390D01*
X117811303Y-76133390D02*
X117858922Y-75942914D01*
X117858922Y-75942914D02*
X117906541Y-75847676D01*
X117906541Y-75847676D02*
X118001779Y-75752438D01*
X118001779Y-75752438D02*
X118144636Y-75704819D01*
X118144636Y-75704819D02*
X118239874Y-75704819D01*
X118239874Y-75704819D02*
X118382731Y-75752438D01*
X118382731Y-75752438D02*
X118430350Y-75800057D01*
X118858922Y-76704819D02*
X118858922Y-75704819D01*
X119430350Y-76704819D02*
X119001779Y-76133390D01*
X119430350Y-75704819D02*
X118858922Y-76276247D01*
X114636779Y-79244819D02*
X114636779Y-78244819D01*
X114636779Y-78244819D02*
X114874874Y-78244819D01*
X114874874Y-78244819D02*
X115017731Y-78292438D01*
X115017731Y-78292438D02*
X115112969Y-78387676D01*
X115112969Y-78387676D02*
X115160588Y-78482914D01*
X115160588Y-78482914D02*
X115208207Y-78673390D01*
X115208207Y-78673390D02*
X115208207Y-78816247D01*
X115208207Y-78816247D02*
X115160588Y-79006723D01*
X115160588Y-79006723D02*
X115112969Y-79101961D01*
X115112969Y-79101961D02*
X115017731Y-79197200D01*
X115017731Y-79197200D02*
X114874874Y-79244819D01*
X114874874Y-79244819D02*
X114636779Y-79244819D01*
X115970112Y-78721009D02*
X116112969Y-78768628D01*
X116112969Y-78768628D02*
X116160588Y-78816247D01*
X116160588Y-78816247D02*
X116208207Y-78911485D01*
X116208207Y-78911485D02*
X116208207Y-79054342D01*
X116208207Y-79054342D02*
X116160588Y-79149580D01*
X116160588Y-79149580D02*
X116112969Y-79197200D01*
X116112969Y-79197200D02*
X116017731Y-79244819D01*
X116017731Y-79244819D02*
X115636779Y-79244819D01*
X115636779Y-79244819D02*
X115636779Y-78244819D01*
X115636779Y-78244819D02*
X115970112Y-78244819D01*
X115970112Y-78244819D02*
X116065350Y-78292438D01*
X116065350Y-78292438D02*
X116112969Y-78340057D01*
X116112969Y-78340057D02*
X116160588Y-78435295D01*
X116160588Y-78435295D02*
X116160588Y-78530533D01*
X116160588Y-78530533D02*
X116112969Y-78625771D01*
X116112969Y-78625771D02*
X116065350Y-78673390D01*
X116065350Y-78673390D02*
X115970112Y-78721009D01*
X115970112Y-78721009D02*
X115636779Y-78721009D01*
X117160588Y-78292438D02*
X117065350Y-78244819D01*
X117065350Y-78244819D02*
X116922493Y-78244819D01*
X116922493Y-78244819D02*
X116779636Y-78292438D01*
X116779636Y-78292438D02*
X116684398Y-78387676D01*
X116684398Y-78387676D02*
X116636779Y-78482914D01*
X116636779Y-78482914D02*
X116589160Y-78673390D01*
X116589160Y-78673390D02*
X116589160Y-78816247D01*
X116589160Y-78816247D02*
X116636779Y-79006723D01*
X116636779Y-79006723D02*
X116684398Y-79101961D01*
X116684398Y-79101961D02*
X116779636Y-79197200D01*
X116779636Y-79197200D02*
X116922493Y-79244819D01*
X116922493Y-79244819D02*
X117017731Y-79244819D01*
X117017731Y-79244819D02*
X117160588Y-79197200D01*
X117160588Y-79197200D02*
X117208207Y-79149580D01*
X117208207Y-79149580D02*
X117208207Y-78816247D01*
X117208207Y-78816247D02*
X117017731Y-78816247D01*
X118208207Y-79244819D02*
X117874874Y-78768628D01*
X117636779Y-79244819D02*
X117636779Y-78244819D01*
X117636779Y-78244819D02*
X118017731Y-78244819D01*
X118017731Y-78244819D02*
X118112969Y-78292438D01*
X118112969Y-78292438D02*
X118160588Y-78340057D01*
X118160588Y-78340057D02*
X118208207Y-78435295D01*
X118208207Y-78435295D02*
X118208207Y-78578152D01*
X118208207Y-78578152D02*
X118160588Y-78673390D01*
X118160588Y-78673390D02*
X118112969Y-78721009D01*
X118112969Y-78721009D02*
X118017731Y-78768628D01*
X118017731Y-78768628D02*
X117636779Y-78768628D01*
X119303445Y-79340057D02*
X119208207Y-79292438D01*
X119208207Y-79292438D02*
X119112969Y-79197200D01*
X119112969Y-79197200D02*
X118970112Y-79054342D01*
X118970112Y-79054342D02*
X118874874Y-79006723D01*
X118874874Y-79006723D02*
X118779636Y-79006723D01*
X118827255Y-79244819D02*
X118732017Y-79197200D01*
X118732017Y-79197200D02*
X118636779Y-79101961D01*
X118636779Y-79101961D02*
X118589160Y-78911485D01*
X118589160Y-78911485D02*
X118589160Y-78578152D01*
X118589160Y-78578152D02*
X118636779Y-78387676D01*
X118636779Y-78387676D02*
X118732017Y-78292438D01*
X118732017Y-78292438D02*
X118827255Y-78244819D01*
X118827255Y-78244819D02*
X119017731Y-78244819D01*
X119017731Y-78244819D02*
X119112969Y-78292438D01*
X119112969Y-78292438D02*
X119208207Y-78387676D01*
X119208207Y-78387676D02*
X119255826Y-78578152D01*
X119255826Y-78578152D02*
X119255826Y-78911485D01*
X119255826Y-78911485D02*
X119208207Y-79101961D01*
X119208207Y-79101961D02*
X119112969Y-79197200D01*
X119112969Y-79197200D02*
X119017731Y-79244819D01*
X119017731Y-79244819D02*
X118827255Y-79244819D01*
X115859160Y-81737200D02*
X116002017Y-81784819D01*
X116002017Y-81784819D02*
X116240112Y-81784819D01*
X116240112Y-81784819D02*
X116335350Y-81737200D01*
X116335350Y-81737200D02*
X116382969Y-81689580D01*
X116382969Y-81689580D02*
X116430588Y-81594342D01*
X116430588Y-81594342D02*
X116430588Y-81499104D01*
X116430588Y-81499104D02*
X116382969Y-81403866D01*
X116382969Y-81403866D02*
X116335350Y-81356247D01*
X116335350Y-81356247D02*
X116240112Y-81308628D01*
X116240112Y-81308628D02*
X116049636Y-81261009D01*
X116049636Y-81261009D02*
X115954398Y-81213390D01*
X115954398Y-81213390D02*
X115906779Y-81165771D01*
X115906779Y-81165771D02*
X115859160Y-81070533D01*
X115859160Y-81070533D02*
X115859160Y-80975295D01*
X115859160Y-80975295D02*
X115906779Y-80880057D01*
X115906779Y-80880057D02*
X115954398Y-80832438D01*
X115954398Y-80832438D02*
X116049636Y-80784819D01*
X116049636Y-80784819D02*
X116287731Y-80784819D01*
X116287731Y-80784819D02*
X116430588Y-80832438D01*
X117430588Y-81784819D02*
X117097255Y-81308628D01*
X116859160Y-81784819D02*
X116859160Y-80784819D01*
X116859160Y-80784819D02*
X117240112Y-80784819D01*
X117240112Y-80784819D02*
X117335350Y-80832438D01*
X117335350Y-80832438D02*
X117382969Y-80880057D01*
X117382969Y-80880057D02*
X117430588Y-80975295D01*
X117430588Y-80975295D02*
X117430588Y-81118152D01*
X117430588Y-81118152D02*
X117382969Y-81213390D01*
X117382969Y-81213390D02*
X117335350Y-81261009D01*
X117335350Y-81261009D02*
X117240112Y-81308628D01*
X117240112Y-81308628D02*
X116859160Y-81308628D01*
X117811541Y-81737200D02*
X117954398Y-81784819D01*
X117954398Y-81784819D02*
X118192493Y-81784819D01*
X118192493Y-81784819D02*
X118287731Y-81737200D01*
X118287731Y-81737200D02*
X118335350Y-81689580D01*
X118335350Y-81689580D02*
X118382969Y-81594342D01*
X118382969Y-81594342D02*
X118382969Y-81499104D01*
X118382969Y-81499104D02*
X118335350Y-81403866D01*
X118335350Y-81403866D02*
X118287731Y-81356247D01*
X118287731Y-81356247D02*
X118192493Y-81308628D01*
X118192493Y-81308628D02*
X118002017Y-81261009D01*
X118002017Y-81261009D02*
X117906779Y-81213390D01*
X117906779Y-81213390D02*
X117859160Y-81165771D01*
X117859160Y-81165771D02*
X117811541Y-81070533D01*
X117811541Y-81070533D02*
X117811541Y-80975295D01*
X117811541Y-80975295D02*
X117859160Y-80880057D01*
X117859160Y-80880057D02*
X117906779Y-80832438D01*
X117906779Y-80832438D02*
X118002017Y-80784819D01*
X118002017Y-80784819D02*
X118240112Y-80784819D01*
X118240112Y-80784819D02*
X118382969Y-80832438D01*
X118668684Y-80784819D02*
X119240112Y-80784819D01*
X118954398Y-81784819D02*
X118954398Y-80784819D01*
X115768684Y-80507200D02*
X119235351Y-80507200D01*
X112588922Y-83324819D02*
X113160350Y-83324819D01*
X112874636Y-84324819D02*
X112874636Y-83324819D01*
X113493684Y-84324819D02*
X113493684Y-83324819D01*
X113493684Y-83324819D02*
X113731779Y-83324819D01*
X113731779Y-83324819D02*
X113874636Y-83372438D01*
X113874636Y-83372438D02*
X113969874Y-83467676D01*
X113969874Y-83467676D02*
X114017493Y-83562914D01*
X114017493Y-83562914D02*
X114065112Y-83753390D01*
X114065112Y-83753390D02*
X114065112Y-83896247D01*
X114065112Y-83896247D02*
X114017493Y-84086723D01*
X114017493Y-84086723D02*
X113969874Y-84181961D01*
X113969874Y-84181961D02*
X113874636Y-84277200D01*
X113874636Y-84277200D02*
X113731779Y-84324819D01*
X113731779Y-84324819D02*
X113493684Y-84324819D01*
X114684160Y-83324819D02*
X114874636Y-83324819D01*
X114874636Y-83324819D02*
X114969874Y-83372438D01*
X114969874Y-83372438D02*
X115065112Y-83467676D01*
X115065112Y-83467676D02*
X115112731Y-83658152D01*
X115112731Y-83658152D02*
X115112731Y-83991485D01*
X115112731Y-83991485D02*
X115065112Y-84181961D01*
X115065112Y-84181961D02*
X114969874Y-84277200D01*
X114969874Y-84277200D02*
X114874636Y-84324819D01*
X114874636Y-84324819D02*
X114684160Y-84324819D01*
X114684160Y-84324819D02*
X114588922Y-84277200D01*
X114588922Y-84277200D02*
X114493684Y-84181961D01*
X114493684Y-84181961D02*
X114446065Y-83991485D01*
X114446065Y-83991485D02*
X114446065Y-83658152D01*
X114446065Y-83658152D02*
X114493684Y-83467676D01*
X114493684Y-83467676D02*
X114588922Y-83372438D01*
X114588922Y-83372438D02*
X114684160Y-83324819D01*
X116255588Y-83277200D02*
X115398446Y-84562914D01*
X116541303Y-84277200D02*
X116684160Y-84324819D01*
X116684160Y-84324819D02*
X116922255Y-84324819D01*
X116922255Y-84324819D02*
X117017493Y-84277200D01*
X117017493Y-84277200D02*
X117065112Y-84229580D01*
X117065112Y-84229580D02*
X117112731Y-84134342D01*
X117112731Y-84134342D02*
X117112731Y-84039104D01*
X117112731Y-84039104D02*
X117065112Y-83943866D01*
X117065112Y-83943866D02*
X117017493Y-83896247D01*
X117017493Y-83896247D02*
X116922255Y-83848628D01*
X116922255Y-83848628D02*
X116731779Y-83801009D01*
X116731779Y-83801009D02*
X116636541Y-83753390D01*
X116636541Y-83753390D02*
X116588922Y-83705771D01*
X116588922Y-83705771D02*
X116541303Y-83610533D01*
X116541303Y-83610533D02*
X116541303Y-83515295D01*
X116541303Y-83515295D02*
X116588922Y-83420057D01*
X116588922Y-83420057D02*
X116636541Y-83372438D01*
X116636541Y-83372438D02*
X116731779Y-83324819D01*
X116731779Y-83324819D02*
X116969874Y-83324819D01*
X116969874Y-83324819D02*
X117112731Y-83372438D01*
X117446065Y-83324819D02*
X117684160Y-84324819D01*
X117684160Y-84324819D02*
X117874636Y-83610533D01*
X117874636Y-83610533D02*
X118065112Y-84324819D01*
X118065112Y-84324819D02*
X118303208Y-83324819D01*
X118874636Y-83324819D02*
X118969874Y-83324819D01*
X118969874Y-83324819D02*
X119065112Y-83372438D01*
X119065112Y-83372438D02*
X119112731Y-83420057D01*
X119112731Y-83420057D02*
X119160350Y-83515295D01*
X119160350Y-83515295D02*
X119207969Y-83705771D01*
X119207969Y-83705771D02*
X119207969Y-83943866D01*
X119207969Y-83943866D02*
X119160350Y-84134342D01*
X119160350Y-84134342D02*
X119112731Y-84229580D01*
X119112731Y-84229580D02*
X119065112Y-84277200D01*
X119065112Y-84277200D02*
X118969874Y-84324819D01*
X118969874Y-84324819D02*
X118874636Y-84324819D01*
X118874636Y-84324819D02*
X118779398Y-84277200D01*
X118779398Y-84277200D02*
X118731779Y-84229580D01*
X118731779Y-84229580D02*
X118684160Y-84134342D01*
X118684160Y-84134342D02*
X118636541Y-83943866D01*
X118636541Y-83943866D02*
X118636541Y-83705771D01*
X118636541Y-83705771D02*
X118684160Y-83515295D01*
X118684160Y-83515295D02*
X118731779Y-83420057D01*
X118731779Y-83420057D02*
X118779398Y-83372438D01*
X118779398Y-83372438D02*
X118874636Y-83324819D01*
X116478207Y-86864819D02*
X116144874Y-86388628D01*
X115906779Y-86864819D02*
X115906779Y-85864819D01*
X115906779Y-85864819D02*
X116287731Y-85864819D01*
X116287731Y-85864819D02*
X116382969Y-85912438D01*
X116382969Y-85912438D02*
X116430588Y-85960057D01*
X116430588Y-85960057D02*
X116478207Y-86055295D01*
X116478207Y-86055295D02*
X116478207Y-86198152D01*
X116478207Y-86198152D02*
X116430588Y-86293390D01*
X116430588Y-86293390D02*
X116382969Y-86341009D01*
X116382969Y-86341009D02*
X116287731Y-86388628D01*
X116287731Y-86388628D02*
X115906779Y-86388628D01*
X116763922Y-85864819D02*
X117335350Y-85864819D01*
X117049636Y-86864819D02*
X117049636Y-85864819D01*
X118240112Y-86769580D02*
X118192493Y-86817200D01*
X118192493Y-86817200D02*
X118049636Y-86864819D01*
X118049636Y-86864819D02*
X117954398Y-86864819D01*
X117954398Y-86864819D02*
X117811541Y-86817200D01*
X117811541Y-86817200D02*
X117716303Y-86721961D01*
X117716303Y-86721961D02*
X117668684Y-86626723D01*
X117668684Y-86626723D02*
X117621065Y-86436247D01*
X117621065Y-86436247D02*
X117621065Y-86293390D01*
X117621065Y-86293390D02*
X117668684Y-86102914D01*
X117668684Y-86102914D02*
X117716303Y-86007676D01*
X117716303Y-86007676D02*
X117811541Y-85912438D01*
X117811541Y-85912438D02*
X117954398Y-85864819D01*
X117954398Y-85864819D02*
X118049636Y-85864819D01*
X118049636Y-85864819D02*
X118192493Y-85912438D01*
X118192493Y-85912438D02*
X118240112Y-85960057D01*
X118668684Y-86864819D02*
X118668684Y-85864819D01*
X119240112Y-86864819D02*
X118811541Y-86293390D01*
X119240112Y-85864819D02*
X118668684Y-86436247D01*
X110048922Y-88404819D02*
X110620350Y-88404819D01*
X110334636Y-89404819D02*
X110334636Y-88404819D01*
X111525112Y-89309580D02*
X111477493Y-89357200D01*
X111477493Y-89357200D02*
X111334636Y-89404819D01*
X111334636Y-89404819D02*
X111239398Y-89404819D01*
X111239398Y-89404819D02*
X111096541Y-89357200D01*
X111096541Y-89357200D02*
X111001303Y-89261961D01*
X111001303Y-89261961D02*
X110953684Y-89166723D01*
X110953684Y-89166723D02*
X110906065Y-88976247D01*
X110906065Y-88976247D02*
X110906065Y-88833390D01*
X110906065Y-88833390D02*
X110953684Y-88642914D01*
X110953684Y-88642914D02*
X111001303Y-88547676D01*
X111001303Y-88547676D02*
X111096541Y-88452438D01*
X111096541Y-88452438D02*
X111239398Y-88404819D01*
X111239398Y-88404819D02*
X111334636Y-88404819D01*
X111334636Y-88404819D02*
X111477493Y-88452438D01*
X111477493Y-88452438D02*
X111525112Y-88500057D01*
X111953684Y-89404819D02*
X111953684Y-88404819D01*
X112525112Y-89404819D02*
X112096541Y-88833390D01*
X112525112Y-88404819D02*
X111953684Y-88976247D01*
X113667969Y-88357200D02*
X112810827Y-89642914D01*
X113953684Y-89357200D02*
X114096541Y-89404819D01*
X114096541Y-89404819D02*
X114334636Y-89404819D01*
X114334636Y-89404819D02*
X114429874Y-89357200D01*
X114429874Y-89357200D02*
X114477493Y-89309580D01*
X114477493Y-89309580D02*
X114525112Y-89214342D01*
X114525112Y-89214342D02*
X114525112Y-89119104D01*
X114525112Y-89119104D02*
X114477493Y-89023866D01*
X114477493Y-89023866D02*
X114429874Y-88976247D01*
X114429874Y-88976247D02*
X114334636Y-88928628D01*
X114334636Y-88928628D02*
X114144160Y-88881009D01*
X114144160Y-88881009D02*
X114048922Y-88833390D01*
X114048922Y-88833390D02*
X114001303Y-88785771D01*
X114001303Y-88785771D02*
X113953684Y-88690533D01*
X113953684Y-88690533D02*
X113953684Y-88595295D01*
X113953684Y-88595295D02*
X114001303Y-88500057D01*
X114001303Y-88500057D02*
X114048922Y-88452438D01*
X114048922Y-88452438D02*
X114144160Y-88404819D01*
X114144160Y-88404819D02*
X114382255Y-88404819D01*
X114382255Y-88404819D02*
X114525112Y-88452438D01*
X114858446Y-88404819D02*
X115096541Y-89404819D01*
X115096541Y-89404819D02*
X115287017Y-88690533D01*
X115287017Y-88690533D02*
X115477493Y-89404819D01*
X115477493Y-89404819D02*
X115715589Y-88404819D01*
X116096541Y-89404819D02*
X116096541Y-88404819D01*
X116096541Y-88404819D02*
X116334636Y-88404819D01*
X116334636Y-88404819D02*
X116477493Y-88452438D01*
X116477493Y-88452438D02*
X116572731Y-88547676D01*
X116572731Y-88547676D02*
X116620350Y-88642914D01*
X116620350Y-88642914D02*
X116667969Y-88833390D01*
X116667969Y-88833390D02*
X116667969Y-88976247D01*
X116667969Y-88976247D02*
X116620350Y-89166723D01*
X116620350Y-89166723D02*
X116572731Y-89261961D01*
X116572731Y-89261961D02*
X116477493Y-89357200D01*
X116477493Y-89357200D02*
X116334636Y-89404819D01*
X116334636Y-89404819D02*
X116096541Y-89404819D01*
X117667969Y-89309580D02*
X117620350Y-89357200D01*
X117620350Y-89357200D02*
X117477493Y-89404819D01*
X117477493Y-89404819D02*
X117382255Y-89404819D01*
X117382255Y-89404819D02*
X117239398Y-89357200D01*
X117239398Y-89357200D02*
X117144160Y-89261961D01*
X117144160Y-89261961D02*
X117096541Y-89166723D01*
X117096541Y-89166723D02*
X117048922Y-88976247D01*
X117048922Y-88976247D02*
X117048922Y-88833390D01*
X117048922Y-88833390D02*
X117096541Y-88642914D01*
X117096541Y-88642914D02*
X117144160Y-88547676D01*
X117144160Y-88547676D02*
X117239398Y-88452438D01*
X117239398Y-88452438D02*
X117382255Y-88404819D01*
X117382255Y-88404819D02*
X117477493Y-88404819D01*
X117477493Y-88404819D02*
X117620350Y-88452438D01*
X117620350Y-88452438D02*
X117667969Y-88500057D01*
X118572731Y-89404819D02*
X118096541Y-89404819D01*
X118096541Y-89404819D02*
X118096541Y-88404819D01*
X118906065Y-89404819D02*
X118906065Y-88404819D01*
X119477493Y-89404819D02*
X119048922Y-88833390D01*
X119477493Y-88404819D02*
X118906065Y-88976247D01*
X110683922Y-90944819D02*
X111255350Y-90944819D01*
X110969636Y-91944819D02*
X110969636Y-90944819D01*
X111588684Y-91944819D02*
X111588684Y-90944819D01*
X111588684Y-90944819D02*
X111922017Y-91659104D01*
X111922017Y-91659104D02*
X112255350Y-90944819D01*
X112255350Y-90944819D02*
X112255350Y-91944819D01*
X112683922Y-91897200D02*
X112826779Y-91944819D01*
X112826779Y-91944819D02*
X113064874Y-91944819D01*
X113064874Y-91944819D02*
X113160112Y-91897200D01*
X113160112Y-91897200D02*
X113207731Y-91849580D01*
X113207731Y-91849580D02*
X113255350Y-91754342D01*
X113255350Y-91754342D02*
X113255350Y-91659104D01*
X113255350Y-91659104D02*
X113207731Y-91563866D01*
X113207731Y-91563866D02*
X113160112Y-91516247D01*
X113160112Y-91516247D02*
X113064874Y-91468628D01*
X113064874Y-91468628D02*
X112874398Y-91421009D01*
X112874398Y-91421009D02*
X112779160Y-91373390D01*
X112779160Y-91373390D02*
X112731541Y-91325771D01*
X112731541Y-91325771D02*
X112683922Y-91230533D01*
X112683922Y-91230533D02*
X112683922Y-91135295D01*
X112683922Y-91135295D02*
X112731541Y-91040057D01*
X112731541Y-91040057D02*
X112779160Y-90992438D01*
X112779160Y-90992438D02*
X112874398Y-90944819D01*
X112874398Y-90944819D02*
X113112493Y-90944819D01*
X113112493Y-90944819D02*
X113255350Y-90992438D01*
X114398207Y-90897200D02*
X113541065Y-92182914D01*
X114683922Y-91897200D02*
X114826779Y-91944819D01*
X114826779Y-91944819D02*
X115064874Y-91944819D01*
X115064874Y-91944819D02*
X115160112Y-91897200D01*
X115160112Y-91897200D02*
X115207731Y-91849580D01*
X115207731Y-91849580D02*
X115255350Y-91754342D01*
X115255350Y-91754342D02*
X115255350Y-91659104D01*
X115255350Y-91659104D02*
X115207731Y-91563866D01*
X115207731Y-91563866D02*
X115160112Y-91516247D01*
X115160112Y-91516247D02*
X115064874Y-91468628D01*
X115064874Y-91468628D02*
X114874398Y-91421009D01*
X114874398Y-91421009D02*
X114779160Y-91373390D01*
X114779160Y-91373390D02*
X114731541Y-91325771D01*
X114731541Y-91325771D02*
X114683922Y-91230533D01*
X114683922Y-91230533D02*
X114683922Y-91135295D01*
X114683922Y-91135295D02*
X114731541Y-91040057D01*
X114731541Y-91040057D02*
X114779160Y-90992438D01*
X114779160Y-90992438D02*
X114874398Y-90944819D01*
X114874398Y-90944819D02*
X115112493Y-90944819D01*
X115112493Y-90944819D02*
X115255350Y-90992438D01*
X115588684Y-90944819D02*
X115826779Y-91944819D01*
X115826779Y-91944819D02*
X116017255Y-91230533D01*
X116017255Y-91230533D02*
X116207731Y-91944819D01*
X116207731Y-91944819D02*
X116445827Y-90944819D01*
X116826779Y-91944819D02*
X116826779Y-90944819D01*
X116826779Y-90944819D02*
X117064874Y-90944819D01*
X117064874Y-90944819D02*
X117207731Y-90992438D01*
X117207731Y-90992438D02*
X117302969Y-91087676D01*
X117302969Y-91087676D02*
X117350588Y-91182914D01*
X117350588Y-91182914D02*
X117398207Y-91373390D01*
X117398207Y-91373390D02*
X117398207Y-91516247D01*
X117398207Y-91516247D02*
X117350588Y-91706723D01*
X117350588Y-91706723D02*
X117302969Y-91801961D01*
X117302969Y-91801961D02*
X117207731Y-91897200D01*
X117207731Y-91897200D02*
X117064874Y-91944819D01*
X117064874Y-91944819D02*
X116826779Y-91944819D01*
X117826779Y-91944819D02*
X117826779Y-90944819D01*
X118493445Y-90944819D02*
X118683921Y-90944819D01*
X118683921Y-90944819D02*
X118779159Y-90992438D01*
X118779159Y-90992438D02*
X118874397Y-91087676D01*
X118874397Y-91087676D02*
X118922016Y-91278152D01*
X118922016Y-91278152D02*
X118922016Y-91611485D01*
X118922016Y-91611485D02*
X118874397Y-91801961D01*
X118874397Y-91801961D02*
X118779159Y-91897200D01*
X118779159Y-91897200D02*
X118683921Y-91944819D01*
X118683921Y-91944819D02*
X118493445Y-91944819D01*
X118493445Y-91944819D02*
X118398207Y-91897200D01*
X118398207Y-91897200D02*
X118302969Y-91801961D01*
X118302969Y-91801961D02*
X118255350Y-91611485D01*
X118255350Y-91611485D02*
X118255350Y-91278152D01*
X118255350Y-91278152D02*
X118302969Y-91087676D01*
X118302969Y-91087676D02*
X118398207Y-90992438D01*
X118398207Y-90992438D02*
X118493445Y-90944819D01*
X117033922Y-93484819D02*
X117605350Y-93484819D01*
X117319636Y-94484819D02*
X117319636Y-93484819D01*
X117938684Y-94484819D02*
X117938684Y-93484819D01*
X117938684Y-93484819D02*
X118176779Y-93484819D01*
X118176779Y-93484819D02*
X118319636Y-93532438D01*
X118319636Y-93532438D02*
X118414874Y-93627676D01*
X118414874Y-93627676D02*
X118462493Y-93722914D01*
X118462493Y-93722914D02*
X118510112Y-93913390D01*
X118510112Y-93913390D02*
X118510112Y-94056247D01*
X118510112Y-94056247D02*
X118462493Y-94246723D01*
X118462493Y-94246723D02*
X118414874Y-94341961D01*
X118414874Y-94341961D02*
X118319636Y-94437200D01*
X118319636Y-94437200D02*
X118176779Y-94484819D01*
X118176779Y-94484819D02*
X117938684Y-94484819D01*
X118938684Y-94484819D02*
X118938684Y-93484819D01*
X115763922Y-96024819D02*
X116335350Y-96024819D01*
X116049636Y-97024819D02*
X116049636Y-96024819D01*
X117240112Y-97024819D02*
X116906779Y-96548628D01*
X116668684Y-97024819D02*
X116668684Y-96024819D01*
X116668684Y-96024819D02*
X117049636Y-96024819D01*
X117049636Y-96024819D02*
X117144874Y-96072438D01*
X117144874Y-96072438D02*
X117192493Y-96120057D01*
X117192493Y-96120057D02*
X117240112Y-96215295D01*
X117240112Y-96215295D02*
X117240112Y-96358152D01*
X117240112Y-96358152D02*
X117192493Y-96453390D01*
X117192493Y-96453390D02*
X117144874Y-96501009D01*
X117144874Y-96501009D02*
X117049636Y-96548628D01*
X117049636Y-96548628D02*
X116668684Y-96548628D01*
X117621065Y-96977200D02*
X117763922Y-97024819D01*
X117763922Y-97024819D02*
X118002017Y-97024819D01*
X118002017Y-97024819D02*
X118097255Y-96977200D01*
X118097255Y-96977200D02*
X118144874Y-96929580D01*
X118144874Y-96929580D02*
X118192493Y-96834342D01*
X118192493Y-96834342D02*
X118192493Y-96739104D01*
X118192493Y-96739104D02*
X118144874Y-96643866D01*
X118144874Y-96643866D02*
X118097255Y-96596247D01*
X118097255Y-96596247D02*
X118002017Y-96548628D01*
X118002017Y-96548628D02*
X117811541Y-96501009D01*
X117811541Y-96501009D02*
X117716303Y-96453390D01*
X117716303Y-96453390D02*
X117668684Y-96405771D01*
X117668684Y-96405771D02*
X117621065Y-96310533D01*
X117621065Y-96310533D02*
X117621065Y-96215295D01*
X117621065Y-96215295D02*
X117668684Y-96120057D01*
X117668684Y-96120057D02*
X117716303Y-96072438D01*
X117716303Y-96072438D02*
X117811541Y-96024819D01*
X117811541Y-96024819D02*
X118049636Y-96024819D01*
X118049636Y-96024819D02*
X118192493Y-96072438D01*
X118478208Y-96024819D02*
X119049636Y-96024819D01*
X118763922Y-97024819D02*
X118763922Y-96024819D01*
X115768684Y-95747200D02*
X119044875Y-95747200D01*
X114636779Y-99183866D02*
X115398684Y-99183866D01*
X115017731Y-99564819D02*
X115017731Y-98802914D01*
X115779636Y-98564819D02*
X116398683Y-98564819D01*
X116398683Y-98564819D02*
X116065350Y-98945771D01*
X116065350Y-98945771D02*
X116208207Y-98945771D01*
X116208207Y-98945771D02*
X116303445Y-98993390D01*
X116303445Y-98993390D02*
X116351064Y-99041009D01*
X116351064Y-99041009D02*
X116398683Y-99136247D01*
X116398683Y-99136247D02*
X116398683Y-99374342D01*
X116398683Y-99374342D02*
X116351064Y-99469580D01*
X116351064Y-99469580D02*
X116303445Y-99517200D01*
X116303445Y-99517200D02*
X116208207Y-99564819D01*
X116208207Y-99564819D02*
X115922493Y-99564819D01*
X115922493Y-99564819D02*
X115827255Y-99517200D01*
X115827255Y-99517200D02*
X115779636Y-99469580D01*
X116827255Y-99469580D02*
X116874874Y-99517200D01*
X116874874Y-99517200D02*
X116827255Y-99564819D01*
X116827255Y-99564819D02*
X116779636Y-99517200D01*
X116779636Y-99517200D02*
X116827255Y-99469580D01*
X116827255Y-99469580D02*
X116827255Y-99564819D01*
X117208207Y-98564819D02*
X117827254Y-98564819D01*
X117827254Y-98564819D02*
X117493921Y-98945771D01*
X117493921Y-98945771D02*
X117636778Y-98945771D01*
X117636778Y-98945771D02*
X117732016Y-98993390D01*
X117732016Y-98993390D02*
X117779635Y-99041009D01*
X117779635Y-99041009D02*
X117827254Y-99136247D01*
X117827254Y-99136247D02*
X117827254Y-99374342D01*
X117827254Y-99374342D02*
X117779635Y-99469580D01*
X117779635Y-99469580D02*
X117732016Y-99517200D01*
X117732016Y-99517200D02*
X117636778Y-99564819D01*
X117636778Y-99564819D02*
X117351064Y-99564819D01*
X117351064Y-99564819D02*
X117255826Y-99517200D01*
X117255826Y-99517200D02*
X117208207Y-99469580D01*
X118112969Y-98564819D02*
X118446302Y-99564819D01*
X118446302Y-99564819D02*
X118779635Y-98564819D01*
X123526779Y-97024819D02*
X123526779Y-96024819D01*
X123526779Y-96024819D02*
X123764874Y-96024819D01*
X123764874Y-96024819D02*
X123907731Y-96072438D01*
X123907731Y-96072438D02*
X124002969Y-96167676D01*
X124002969Y-96167676D02*
X124050588Y-96262914D01*
X124050588Y-96262914D02*
X124098207Y-96453390D01*
X124098207Y-96453390D02*
X124098207Y-96596247D01*
X124098207Y-96596247D02*
X124050588Y-96786723D01*
X124050588Y-96786723D02*
X124002969Y-96881961D01*
X124002969Y-96881961D02*
X123907731Y-96977200D01*
X123907731Y-96977200D02*
X123764874Y-97024819D01*
X123764874Y-97024819D02*
X123526779Y-97024819D01*
X124479160Y-96739104D02*
X124955350Y-96739104D01*
X124383922Y-97024819D02*
X124717255Y-96024819D01*
X124717255Y-96024819D02*
X125050588Y-97024819D01*
X125955350Y-96929580D02*
X125907731Y-96977200D01*
X125907731Y-96977200D02*
X125764874Y-97024819D01*
X125764874Y-97024819D02*
X125669636Y-97024819D01*
X125669636Y-97024819D02*
X125526779Y-96977200D01*
X125526779Y-96977200D02*
X125431541Y-96881961D01*
X125431541Y-96881961D02*
X125383922Y-96786723D01*
X125383922Y-96786723D02*
X125336303Y-96596247D01*
X125336303Y-96596247D02*
X125336303Y-96453390D01*
X125336303Y-96453390D02*
X125383922Y-96262914D01*
X125383922Y-96262914D02*
X125431541Y-96167676D01*
X125431541Y-96167676D02*
X125526779Y-96072438D01*
X125526779Y-96072438D02*
X125669636Y-96024819D01*
X125669636Y-96024819D02*
X125764874Y-96024819D01*
X125764874Y-96024819D02*
X125907731Y-96072438D01*
X125907731Y-96072438D02*
X125955350Y-96120057D01*
X126383922Y-97024819D02*
X126383922Y-96024819D01*
X126955350Y-97024819D02*
X126526779Y-96453390D01*
X126955350Y-96024819D02*
X126383922Y-96596247D01*
X123526779Y-94484819D02*
X123526779Y-93484819D01*
X123526779Y-93484819D02*
X123764874Y-93484819D01*
X123764874Y-93484819D02*
X123907731Y-93532438D01*
X123907731Y-93532438D02*
X124002969Y-93627676D01*
X124002969Y-93627676D02*
X124050588Y-93722914D01*
X124050588Y-93722914D02*
X124098207Y-93913390D01*
X124098207Y-93913390D02*
X124098207Y-94056247D01*
X124098207Y-94056247D02*
X124050588Y-94246723D01*
X124050588Y-94246723D02*
X124002969Y-94341961D01*
X124002969Y-94341961D02*
X123907731Y-94437200D01*
X123907731Y-94437200D02*
X123764874Y-94484819D01*
X123764874Y-94484819D02*
X123526779Y-94484819D01*
X125098207Y-94484819D02*
X124764874Y-94008628D01*
X124526779Y-94484819D02*
X124526779Y-93484819D01*
X124526779Y-93484819D02*
X124907731Y-93484819D01*
X124907731Y-93484819D02*
X125002969Y-93532438D01*
X125002969Y-93532438D02*
X125050588Y-93580057D01*
X125050588Y-93580057D02*
X125098207Y-93675295D01*
X125098207Y-93675295D02*
X125098207Y-93818152D01*
X125098207Y-93818152D02*
X125050588Y-93913390D01*
X125050588Y-93913390D02*
X125002969Y-93961009D01*
X125002969Y-93961009D02*
X124907731Y-94008628D01*
X124907731Y-94008628D02*
X124526779Y-94008628D01*
X126193445Y-94580057D02*
X126098207Y-94532438D01*
X126098207Y-94532438D02*
X126002969Y-94437200D01*
X126002969Y-94437200D02*
X125860112Y-94294342D01*
X125860112Y-94294342D02*
X125764874Y-94246723D01*
X125764874Y-94246723D02*
X125669636Y-94246723D01*
X125717255Y-94484819D02*
X125622017Y-94437200D01*
X125622017Y-94437200D02*
X125526779Y-94341961D01*
X125526779Y-94341961D02*
X125479160Y-94151485D01*
X125479160Y-94151485D02*
X125479160Y-93818152D01*
X125479160Y-93818152D02*
X125526779Y-93627676D01*
X125526779Y-93627676D02*
X125622017Y-93532438D01*
X125622017Y-93532438D02*
X125717255Y-93484819D01*
X125717255Y-93484819D02*
X125907731Y-93484819D01*
X125907731Y-93484819D02*
X126002969Y-93532438D01*
X126002969Y-93532438D02*
X126098207Y-93627676D01*
X126098207Y-93627676D02*
X126145826Y-93818152D01*
X126145826Y-93818152D02*
X126145826Y-94151485D01*
X126145826Y-94151485D02*
X126098207Y-94341961D01*
X126098207Y-94341961D02*
X126002969Y-94437200D01*
X126002969Y-94437200D02*
X125907731Y-94484819D01*
X125907731Y-94484819D02*
X125717255Y-94484819D01*
X123479160Y-91897200D02*
X123622017Y-91944819D01*
X123622017Y-91944819D02*
X123860112Y-91944819D01*
X123860112Y-91944819D02*
X123955350Y-91897200D01*
X123955350Y-91897200D02*
X124002969Y-91849580D01*
X124002969Y-91849580D02*
X124050588Y-91754342D01*
X124050588Y-91754342D02*
X124050588Y-91659104D01*
X124050588Y-91659104D02*
X124002969Y-91563866D01*
X124002969Y-91563866D02*
X123955350Y-91516247D01*
X123955350Y-91516247D02*
X123860112Y-91468628D01*
X123860112Y-91468628D02*
X123669636Y-91421009D01*
X123669636Y-91421009D02*
X123574398Y-91373390D01*
X123574398Y-91373390D02*
X123526779Y-91325771D01*
X123526779Y-91325771D02*
X123479160Y-91230533D01*
X123479160Y-91230533D02*
X123479160Y-91135295D01*
X123479160Y-91135295D02*
X123526779Y-91040057D01*
X123526779Y-91040057D02*
X123574398Y-90992438D01*
X123574398Y-90992438D02*
X123669636Y-90944819D01*
X123669636Y-90944819D02*
X123907731Y-90944819D01*
X123907731Y-90944819D02*
X124050588Y-90992438D01*
X125050588Y-91944819D02*
X124717255Y-91468628D01*
X124479160Y-91944819D02*
X124479160Y-90944819D01*
X124479160Y-90944819D02*
X124860112Y-90944819D01*
X124860112Y-90944819D02*
X124955350Y-90992438D01*
X124955350Y-90992438D02*
X125002969Y-91040057D01*
X125002969Y-91040057D02*
X125050588Y-91135295D01*
X125050588Y-91135295D02*
X125050588Y-91278152D01*
X125050588Y-91278152D02*
X125002969Y-91373390D01*
X125002969Y-91373390D02*
X124955350Y-91421009D01*
X124955350Y-91421009D02*
X124860112Y-91468628D01*
X124860112Y-91468628D02*
X124479160Y-91468628D01*
X125431541Y-91897200D02*
X125574398Y-91944819D01*
X125574398Y-91944819D02*
X125812493Y-91944819D01*
X125812493Y-91944819D02*
X125907731Y-91897200D01*
X125907731Y-91897200D02*
X125955350Y-91849580D01*
X125955350Y-91849580D02*
X126002969Y-91754342D01*
X126002969Y-91754342D02*
X126002969Y-91659104D01*
X126002969Y-91659104D02*
X125955350Y-91563866D01*
X125955350Y-91563866D02*
X125907731Y-91516247D01*
X125907731Y-91516247D02*
X125812493Y-91468628D01*
X125812493Y-91468628D02*
X125622017Y-91421009D01*
X125622017Y-91421009D02*
X125526779Y-91373390D01*
X125526779Y-91373390D02*
X125479160Y-91325771D01*
X125479160Y-91325771D02*
X125431541Y-91230533D01*
X125431541Y-91230533D02*
X125431541Y-91135295D01*
X125431541Y-91135295D02*
X125479160Y-91040057D01*
X125479160Y-91040057D02*
X125526779Y-90992438D01*
X125526779Y-90992438D02*
X125622017Y-90944819D01*
X125622017Y-90944819D02*
X125860112Y-90944819D01*
X125860112Y-90944819D02*
X126002969Y-90992438D01*
X126288684Y-90944819D02*
X126860112Y-90944819D01*
X126574398Y-91944819D02*
X126574398Y-90944819D01*
X123388684Y-90667200D02*
X126855351Y-90667200D01*
X123383922Y-88404819D02*
X123955350Y-88404819D01*
X123669636Y-89404819D02*
X123669636Y-88404819D01*
X124288684Y-89404819D02*
X124288684Y-88404819D01*
X124288684Y-88404819D02*
X124526779Y-88404819D01*
X124526779Y-88404819D02*
X124669636Y-88452438D01*
X124669636Y-88452438D02*
X124764874Y-88547676D01*
X124764874Y-88547676D02*
X124812493Y-88642914D01*
X124812493Y-88642914D02*
X124860112Y-88833390D01*
X124860112Y-88833390D02*
X124860112Y-88976247D01*
X124860112Y-88976247D02*
X124812493Y-89166723D01*
X124812493Y-89166723D02*
X124764874Y-89261961D01*
X124764874Y-89261961D02*
X124669636Y-89357200D01*
X124669636Y-89357200D02*
X124526779Y-89404819D01*
X124526779Y-89404819D02*
X124288684Y-89404819D01*
X125288684Y-89404819D02*
X125288684Y-88404819D01*
X124098207Y-86864819D02*
X123764874Y-86388628D01*
X123526779Y-86864819D02*
X123526779Y-85864819D01*
X123526779Y-85864819D02*
X123907731Y-85864819D01*
X123907731Y-85864819D02*
X124002969Y-85912438D01*
X124002969Y-85912438D02*
X124050588Y-85960057D01*
X124050588Y-85960057D02*
X124098207Y-86055295D01*
X124098207Y-86055295D02*
X124098207Y-86198152D01*
X124098207Y-86198152D02*
X124050588Y-86293390D01*
X124050588Y-86293390D02*
X124002969Y-86341009D01*
X124002969Y-86341009D02*
X123907731Y-86388628D01*
X123907731Y-86388628D02*
X123526779Y-86388628D01*
X124383922Y-85864819D02*
X124955350Y-85864819D01*
X124669636Y-86864819D02*
X124669636Y-85864819D01*
X125860112Y-86769580D02*
X125812493Y-86817200D01*
X125812493Y-86817200D02*
X125669636Y-86864819D01*
X125669636Y-86864819D02*
X125574398Y-86864819D01*
X125574398Y-86864819D02*
X125431541Y-86817200D01*
X125431541Y-86817200D02*
X125336303Y-86721961D01*
X125336303Y-86721961D02*
X125288684Y-86626723D01*
X125288684Y-86626723D02*
X125241065Y-86436247D01*
X125241065Y-86436247D02*
X125241065Y-86293390D01*
X125241065Y-86293390D02*
X125288684Y-86102914D01*
X125288684Y-86102914D02*
X125336303Y-86007676D01*
X125336303Y-86007676D02*
X125431541Y-85912438D01*
X125431541Y-85912438D02*
X125574398Y-85864819D01*
X125574398Y-85864819D02*
X125669636Y-85864819D01*
X125669636Y-85864819D02*
X125812493Y-85912438D01*
X125812493Y-85912438D02*
X125860112Y-85960057D01*
X126288684Y-86864819D02*
X126288684Y-85864819D01*
X126860112Y-86864819D02*
X126431541Y-86293390D01*
X126860112Y-85864819D02*
X126288684Y-86436247D01*
X123383922Y-83324819D02*
X123955350Y-83324819D01*
X123669636Y-84324819D02*
X123669636Y-83324819D01*
X124860112Y-84229580D02*
X124812493Y-84277200D01*
X124812493Y-84277200D02*
X124669636Y-84324819D01*
X124669636Y-84324819D02*
X124574398Y-84324819D01*
X124574398Y-84324819D02*
X124431541Y-84277200D01*
X124431541Y-84277200D02*
X124336303Y-84181961D01*
X124336303Y-84181961D02*
X124288684Y-84086723D01*
X124288684Y-84086723D02*
X124241065Y-83896247D01*
X124241065Y-83896247D02*
X124241065Y-83753390D01*
X124241065Y-83753390D02*
X124288684Y-83562914D01*
X124288684Y-83562914D02*
X124336303Y-83467676D01*
X124336303Y-83467676D02*
X124431541Y-83372438D01*
X124431541Y-83372438D02*
X124574398Y-83324819D01*
X124574398Y-83324819D02*
X124669636Y-83324819D01*
X124669636Y-83324819D02*
X124812493Y-83372438D01*
X124812493Y-83372438D02*
X124860112Y-83420057D01*
X125288684Y-84324819D02*
X125288684Y-83324819D01*
X125860112Y-84324819D02*
X125431541Y-83753390D01*
X125860112Y-83324819D02*
X125288684Y-83896247D01*
X123383922Y-80784819D02*
X123955350Y-80784819D01*
X123669636Y-81784819D02*
X123669636Y-80784819D01*
X124288684Y-81784819D02*
X124288684Y-80784819D01*
X124288684Y-80784819D02*
X124622017Y-81499104D01*
X124622017Y-81499104D02*
X124955350Y-80784819D01*
X124955350Y-80784819D02*
X124955350Y-81784819D01*
X125383922Y-81737200D02*
X125526779Y-81784819D01*
X125526779Y-81784819D02*
X125764874Y-81784819D01*
X125764874Y-81784819D02*
X125860112Y-81737200D01*
X125860112Y-81737200D02*
X125907731Y-81689580D01*
X125907731Y-81689580D02*
X125955350Y-81594342D01*
X125955350Y-81594342D02*
X125955350Y-81499104D01*
X125955350Y-81499104D02*
X125907731Y-81403866D01*
X125907731Y-81403866D02*
X125860112Y-81356247D01*
X125860112Y-81356247D02*
X125764874Y-81308628D01*
X125764874Y-81308628D02*
X125574398Y-81261009D01*
X125574398Y-81261009D02*
X125479160Y-81213390D01*
X125479160Y-81213390D02*
X125431541Y-81165771D01*
X125431541Y-81165771D02*
X125383922Y-81070533D01*
X125383922Y-81070533D02*
X125383922Y-80975295D01*
X125383922Y-80975295D02*
X125431541Y-80880057D01*
X125431541Y-80880057D02*
X125479160Y-80832438D01*
X125479160Y-80832438D02*
X125574398Y-80784819D01*
X125574398Y-80784819D02*
X125812493Y-80784819D01*
X125812493Y-80784819D02*
X125955350Y-80832438D01*
X123383922Y-78244819D02*
X123955350Y-78244819D01*
X123669636Y-79244819D02*
X123669636Y-78244819D01*
X124288684Y-79244819D02*
X124288684Y-78244819D01*
X124288684Y-78244819D02*
X124526779Y-78244819D01*
X124526779Y-78244819D02*
X124669636Y-78292438D01*
X124669636Y-78292438D02*
X124764874Y-78387676D01*
X124764874Y-78387676D02*
X124812493Y-78482914D01*
X124812493Y-78482914D02*
X124860112Y-78673390D01*
X124860112Y-78673390D02*
X124860112Y-78816247D01*
X124860112Y-78816247D02*
X124812493Y-79006723D01*
X124812493Y-79006723D02*
X124764874Y-79101961D01*
X124764874Y-79101961D02*
X124669636Y-79197200D01*
X124669636Y-79197200D02*
X124526779Y-79244819D01*
X124526779Y-79244819D02*
X124288684Y-79244819D01*
X125288684Y-79244819D02*
X125288684Y-78244819D01*
X123383922Y-75831819D02*
X123955350Y-75831819D01*
X123669636Y-76831819D02*
X123669636Y-75831819D01*
X124860112Y-76831819D02*
X124526779Y-76355628D01*
X124288684Y-76831819D02*
X124288684Y-75831819D01*
X124288684Y-75831819D02*
X124669636Y-75831819D01*
X124669636Y-75831819D02*
X124764874Y-75879438D01*
X124764874Y-75879438D02*
X124812493Y-75927057D01*
X124812493Y-75927057D02*
X124860112Y-76022295D01*
X124860112Y-76022295D02*
X124860112Y-76165152D01*
X124860112Y-76165152D02*
X124812493Y-76260390D01*
X124812493Y-76260390D02*
X124764874Y-76308009D01*
X124764874Y-76308009D02*
X124669636Y-76355628D01*
X124669636Y-76355628D02*
X124288684Y-76355628D01*
X125241065Y-76784200D02*
X125383922Y-76831819D01*
X125383922Y-76831819D02*
X125622017Y-76831819D01*
X125622017Y-76831819D02*
X125717255Y-76784200D01*
X125717255Y-76784200D02*
X125764874Y-76736580D01*
X125764874Y-76736580D02*
X125812493Y-76641342D01*
X125812493Y-76641342D02*
X125812493Y-76546104D01*
X125812493Y-76546104D02*
X125764874Y-76450866D01*
X125764874Y-76450866D02*
X125717255Y-76403247D01*
X125717255Y-76403247D02*
X125622017Y-76355628D01*
X125622017Y-76355628D02*
X125431541Y-76308009D01*
X125431541Y-76308009D02*
X125336303Y-76260390D01*
X125336303Y-76260390D02*
X125288684Y-76212771D01*
X125288684Y-76212771D02*
X125241065Y-76117533D01*
X125241065Y-76117533D02*
X125241065Y-76022295D01*
X125241065Y-76022295D02*
X125288684Y-75927057D01*
X125288684Y-75927057D02*
X125336303Y-75879438D01*
X125336303Y-75879438D02*
X125431541Y-75831819D01*
X125431541Y-75831819D02*
X125669636Y-75831819D01*
X125669636Y-75831819D02*
X125812493Y-75879438D01*
X126098208Y-75831819D02*
X126669636Y-75831819D01*
X126383922Y-76831819D02*
X126383922Y-75831819D01*
X123388684Y-75554200D02*
X126664875Y-75554200D01*
X110477493Y-60714819D02*
X110477493Y-61429104D01*
X110477493Y-61429104D02*
X110429874Y-61571961D01*
X110429874Y-61571961D02*
X110334636Y-61667200D01*
X110334636Y-61667200D02*
X110191779Y-61714819D01*
X110191779Y-61714819D02*
X110096541Y-61714819D01*
X110810827Y-60714819D02*
X111382255Y-60714819D01*
X111096541Y-61714819D02*
X111096541Y-60714819D01*
X111667970Y-61429104D02*
X112144160Y-61429104D01*
X111572732Y-61714819D02*
X111906065Y-60714819D01*
X111906065Y-60714819D02*
X112239398Y-61714819D01*
X113096541Y-60762438D02*
X113001303Y-60714819D01*
X113001303Y-60714819D02*
X112858446Y-60714819D01*
X112858446Y-60714819D02*
X112715589Y-60762438D01*
X112715589Y-60762438D02*
X112620351Y-60857676D01*
X112620351Y-60857676D02*
X112572732Y-60952914D01*
X112572732Y-60952914D02*
X112525113Y-61143390D01*
X112525113Y-61143390D02*
X112525113Y-61286247D01*
X112525113Y-61286247D02*
X112572732Y-61476723D01*
X112572732Y-61476723D02*
X112620351Y-61571961D01*
X112620351Y-61571961D02*
X112715589Y-61667200D01*
X112715589Y-61667200D02*
X112858446Y-61714819D01*
X112858446Y-61714819D02*
X112953684Y-61714819D01*
X112953684Y-61714819D02*
X113096541Y-61667200D01*
X113096541Y-61667200D02*
X113144160Y-61619580D01*
X113144160Y-61619580D02*
X113144160Y-61286247D01*
X113144160Y-61286247D02*
X112953684Y-61286247D01*
X114667970Y-61191009D02*
X114810827Y-61238628D01*
X114810827Y-61238628D02*
X114858446Y-61286247D01*
X114858446Y-61286247D02*
X114906065Y-61381485D01*
X114906065Y-61381485D02*
X114906065Y-61524342D01*
X114906065Y-61524342D02*
X114858446Y-61619580D01*
X114858446Y-61619580D02*
X114810827Y-61667200D01*
X114810827Y-61667200D02*
X114715589Y-61714819D01*
X114715589Y-61714819D02*
X114334637Y-61714819D01*
X114334637Y-61714819D02*
X114334637Y-60714819D01*
X114334637Y-60714819D02*
X114667970Y-60714819D01*
X114667970Y-60714819D02*
X114763208Y-60762438D01*
X114763208Y-60762438D02*
X114810827Y-60810057D01*
X114810827Y-60810057D02*
X114858446Y-60905295D01*
X114858446Y-60905295D02*
X114858446Y-61000533D01*
X114858446Y-61000533D02*
X114810827Y-61095771D01*
X114810827Y-61095771D02*
X114763208Y-61143390D01*
X114763208Y-61143390D02*
X114667970Y-61191009D01*
X114667970Y-61191009D02*
X114334637Y-61191009D01*
X115334637Y-61714819D02*
X115334637Y-61048152D01*
X115334637Y-61238628D02*
X115382256Y-61143390D01*
X115382256Y-61143390D02*
X115429875Y-61095771D01*
X115429875Y-61095771D02*
X115525113Y-61048152D01*
X115525113Y-61048152D02*
X115620351Y-61048152D01*
X116334637Y-61667200D02*
X116239399Y-61714819D01*
X116239399Y-61714819D02*
X116048923Y-61714819D01*
X116048923Y-61714819D02*
X115953685Y-61667200D01*
X115953685Y-61667200D02*
X115906066Y-61571961D01*
X115906066Y-61571961D02*
X115906066Y-61191009D01*
X115906066Y-61191009D02*
X115953685Y-61095771D01*
X115953685Y-61095771D02*
X116048923Y-61048152D01*
X116048923Y-61048152D02*
X116239399Y-61048152D01*
X116239399Y-61048152D02*
X116334637Y-61095771D01*
X116334637Y-61095771D02*
X116382256Y-61191009D01*
X116382256Y-61191009D02*
X116382256Y-61286247D01*
X116382256Y-61286247D02*
X115906066Y-61381485D01*
X117239399Y-61714819D02*
X117239399Y-61191009D01*
X117239399Y-61191009D02*
X117191780Y-61095771D01*
X117191780Y-61095771D02*
X117096542Y-61048152D01*
X117096542Y-61048152D02*
X116906066Y-61048152D01*
X116906066Y-61048152D02*
X116810828Y-61095771D01*
X117239399Y-61667200D02*
X117144161Y-61714819D01*
X117144161Y-61714819D02*
X116906066Y-61714819D01*
X116906066Y-61714819D02*
X116810828Y-61667200D01*
X116810828Y-61667200D02*
X116763209Y-61571961D01*
X116763209Y-61571961D02*
X116763209Y-61476723D01*
X116763209Y-61476723D02*
X116810828Y-61381485D01*
X116810828Y-61381485D02*
X116906066Y-61333866D01*
X116906066Y-61333866D02*
X117144161Y-61333866D01*
X117144161Y-61333866D02*
X117239399Y-61286247D01*
X117715590Y-61714819D02*
X117715590Y-60714819D01*
X117810828Y-61333866D02*
X118096542Y-61714819D01*
X118096542Y-61048152D02*
X117715590Y-61429104D01*
X118667971Y-61714819D02*
X118572733Y-61667200D01*
X118572733Y-61667200D02*
X118525114Y-61619580D01*
X118525114Y-61619580D02*
X118477495Y-61524342D01*
X118477495Y-61524342D02*
X118477495Y-61238628D01*
X118477495Y-61238628D02*
X118525114Y-61143390D01*
X118525114Y-61143390D02*
X118572733Y-61095771D01*
X118572733Y-61095771D02*
X118667971Y-61048152D01*
X118667971Y-61048152D02*
X118810828Y-61048152D01*
X118810828Y-61048152D02*
X118906066Y-61095771D01*
X118906066Y-61095771D02*
X118953685Y-61143390D01*
X118953685Y-61143390D02*
X119001304Y-61238628D01*
X119001304Y-61238628D02*
X119001304Y-61524342D01*
X119001304Y-61524342D02*
X118953685Y-61619580D01*
X118953685Y-61619580D02*
X118906066Y-61667200D01*
X118906066Y-61667200D02*
X118810828Y-61714819D01*
X118810828Y-61714819D02*
X118667971Y-61714819D01*
X119858447Y-61048152D02*
X119858447Y-61714819D01*
X119429876Y-61048152D02*
X119429876Y-61571961D01*
X119429876Y-61571961D02*
X119477495Y-61667200D01*
X119477495Y-61667200D02*
X119572733Y-61714819D01*
X119572733Y-61714819D02*
X119715590Y-61714819D01*
X119715590Y-61714819D02*
X119810828Y-61667200D01*
X119810828Y-61667200D02*
X119858447Y-61619580D01*
X120191781Y-61048152D02*
X120572733Y-61048152D01*
X120334638Y-60714819D02*
X120334638Y-61571961D01*
X120334638Y-61571961D02*
X120382257Y-61667200D01*
X120382257Y-61667200D02*
X120477495Y-61714819D01*
X120477495Y-61714819D02*
X120572733Y-61714819D01*
X110191779Y-63324819D02*
X110191779Y-62324819D01*
X110620350Y-63277200D02*
X110715588Y-63324819D01*
X110715588Y-63324819D02*
X110906064Y-63324819D01*
X110906064Y-63324819D02*
X111001302Y-63277200D01*
X111001302Y-63277200D02*
X111048921Y-63181961D01*
X111048921Y-63181961D02*
X111048921Y-63134342D01*
X111048921Y-63134342D02*
X111001302Y-63039104D01*
X111001302Y-63039104D02*
X110906064Y-62991485D01*
X110906064Y-62991485D02*
X110763207Y-62991485D01*
X110763207Y-62991485D02*
X110667969Y-62943866D01*
X110667969Y-62943866D02*
X110620350Y-62848628D01*
X110620350Y-62848628D02*
X110620350Y-62801009D01*
X110620350Y-62801009D02*
X110667969Y-62705771D01*
X110667969Y-62705771D02*
X110763207Y-62658152D01*
X110763207Y-62658152D02*
X110906064Y-62658152D01*
X110906064Y-62658152D02*
X111001302Y-62705771D01*
X111429874Y-63277200D02*
X111525112Y-63324819D01*
X111525112Y-63324819D02*
X111715588Y-63324819D01*
X111715588Y-63324819D02*
X111810826Y-63277200D01*
X111810826Y-63277200D02*
X111858445Y-63181961D01*
X111858445Y-63181961D02*
X111858445Y-63134342D01*
X111858445Y-63134342D02*
X111810826Y-63039104D01*
X111810826Y-63039104D02*
X111715588Y-62991485D01*
X111715588Y-62991485D02*
X111572731Y-62991485D01*
X111572731Y-62991485D02*
X111477493Y-62943866D01*
X111477493Y-62943866D02*
X111429874Y-62848628D01*
X111429874Y-62848628D02*
X111429874Y-62801009D01*
X111429874Y-62801009D02*
X111477493Y-62705771D01*
X111477493Y-62705771D02*
X111572731Y-62658152D01*
X111572731Y-62658152D02*
X111715588Y-62658152D01*
X111715588Y-62658152D02*
X111810826Y-62705771D01*
X112715588Y-62658152D02*
X112715588Y-63324819D01*
X112287017Y-62658152D02*
X112287017Y-63181961D01*
X112287017Y-63181961D02*
X112334636Y-63277200D01*
X112334636Y-63277200D02*
X112429874Y-63324819D01*
X112429874Y-63324819D02*
X112572731Y-63324819D01*
X112572731Y-63324819D02*
X112667969Y-63277200D01*
X112667969Y-63277200D02*
X112715588Y-63229580D01*
X113572731Y-63277200D02*
X113477493Y-63324819D01*
X113477493Y-63324819D02*
X113287017Y-63324819D01*
X113287017Y-63324819D02*
X113191779Y-63277200D01*
X113191779Y-63277200D02*
X113144160Y-63181961D01*
X113144160Y-63181961D02*
X113144160Y-62801009D01*
X113144160Y-62801009D02*
X113191779Y-62705771D01*
X113191779Y-62705771D02*
X113287017Y-62658152D01*
X113287017Y-62658152D02*
X113477493Y-62658152D01*
X113477493Y-62658152D02*
X113572731Y-62705771D01*
X113572731Y-62705771D02*
X113620350Y-62801009D01*
X113620350Y-62801009D02*
X113620350Y-62896247D01*
X113620350Y-62896247D02*
X113144160Y-62991485D01*
X115334636Y-63324819D02*
X114763208Y-63324819D01*
X115048922Y-63324819D02*
X115048922Y-62324819D01*
X115048922Y-62324819D02*
X114953684Y-62467676D01*
X114953684Y-62467676D02*
X114858446Y-62562914D01*
X114858446Y-62562914D02*
X114763208Y-62610533D01*
X110477493Y-65315771D02*
X110429874Y-65268152D01*
X110429874Y-65268152D02*
X110334636Y-65125295D01*
X110334636Y-65125295D02*
X110287017Y-65030057D01*
X110287017Y-65030057D02*
X110239398Y-64887200D01*
X110239398Y-64887200D02*
X110191779Y-64649104D01*
X110191779Y-64649104D02*
X110191779Y-64458628D01*
X110191779Y-64458628D02*
X110239398Y-64220533D01*
X110239398Y-64220533D02*
X110287017Y-64077676D01*
X110287017Y-64077676D02*
X110334636Y-63982438D01*
X110334636Y-63982438D02*
X110429874Y-63839580D01*
X110429874Y-63839580D02*
X110477493Y-63791961D01*
X111429874Y-64839580D02*
X111382255Y-64887200D01*
X111382255Y-64887200D02*
X111239398Y-64934819D01*
X111239398Y-64934819D02*
X111144160Y-64934819D01*
X111144160Y-64934819D02*
X111001303Y-64887200D01*
X111001303Y-64887200D02*
X110906065Y-64791961D01*
X110906065Y-64791961D02*
X110858446Y-64696723D01*
X110858446Y-64696723D02*
X110810827Y-64506247D01*
X110810827Y-64506247D02*
X110810827Y-64363390D01*
X110810827Y-64363390D02*
X110858446Y-64172914D01*
X110858446Y-64172914D02*
X110906065Y-64077676D01*
X110906065Y-64077676D02*
X111001303Y-63982438D01*
X111001303Y-63982438D02*
X111144160Y-63934819D01*
X111144160Y-63934819D02*
X111239398Y-63934819D01*
X111239398Y-63934819D02*
X111382255Y-63982438D01*
X111382255Y-63982438D02*
X111429874Y-64030057D01*
X111763208Y-65315771D02*
X111810827Y-65268152D01*
X111810827Y-65268152D02*
X111906065Y-65125295D01*
X111906065Y-65125295D02*
X111953684Y-65030057D01*
X111953684Y-65030057D02*
X112001303Y-64887200D01*
X112001303Y-64887200D02*
X112048922Y-64649104D01*
X112048922Y-64649104D02*
X112048922Y-64458628D01*
X112048922Y-64458628D02*
X112001303Y-64220533D01*
X112001303Y-64220533D02*
X111953684Y-64077676D01*
X111953684Y-64077676D02*
X111906065Y-63982438D01*
X111906065Y-63982438D02*
X111810827Y-63839580D01*
X111810827Y-63839580D02*
X111763208Y-63791961D01*
X113239399Y-64030057D02*
X113287018Y-63982438D01*
X113287018Y-63982438D02*
X113382256Y-63934819D01*
X113382256Y-63934819D02*
X113620351Y-63934819D01*
X113620351Y-63934819D02*
X113715589Y-63982438D01*
X113715589Y-63982438D02*
X113763208Y-64030057D01*
X113763208Y-64030057D02*
X113810827Y-64125295D01*
X113810827Y-64125295D02*
X113810827Y-64220533D01*
X113810827Y-64220533D02*
X113763208Y-64363390D01*
X113763208Y-64363390D02*
X113191780Y-64934819D01*
X113191780Y-64934819D02*
X113810827Y-64934819D01*
X114429875Y-63934819D02*
X114525113Y-63934819D01*
X114525113Y-63934819D02*
X114620351Y-63982438D01*
X114620351Y-63982438D02*
X114667970Y-64030057D01*
X114667970Y-64030057D02*
X114715589Y-64125295D01*
X114715589Y-64125295D02*
X114763208Y-64315771D01*
X114763208Y-64315771D02*
X114763208Y-64553866D01*
X114763208Y-64553866D02*
X114715589Y-64744342D01*
X114715589Y-64744342D02*
X114667970Y-64839580D01*
X114667970Y-64839580D02*
X114620351Y-64887200D01*
X114620351Y-64887200D02*
X114525113Y-64934819D01*
X114525113Y-64934819D02*
X114429875Y-64934819D01*
X114429875Y-64934819D02*
X114334637Y-64887200D01*
X114334637Y-64887200D02*
X114287018Y-64839580D01*
X114287018Y-64839580D02*
X114239399Y-64744342D01*
X114239399Y-64744342D02*
X114191780Y-64553866D01*
X114191780Y-64553866D02*
X114191780Y-64315771D01*
X114191780Y-64315771D02*
X114239399Y-64125295D01*
X114239399Y-64125295D02*
X114287018Y-64030057D01*
X114287018Y-64030057D02*
X114334637Y-63982438D01*
X114334637Y-63982438D02*
X114429875Y-63934819D01*
X115144161Y-64030057D02*
X115191780Y-63982438D01*
X115191780Y-63982438D02*
X115287018Y-63934819D01*
X115287018Y-63934819D02*
X115525113Y-63934819D01*
X115525113Y-63934819D02*
X115620351Y-63982438D01*
X115620351Y-63982438D02*
X115667970Y-64030057D01*
X115667970Y-64030057D02*
X115715589Y-64125295D01*
X115715589Y-64125295D02*
X115715589Y-64220533D01*
X115715589Y-64220533D02*
X115667970Y-64363390D01*
X115667970Y-64363390D02*
X115096542Y-64934819D01*
X115096542Y-64934819D02*
X115715589Y-64934819D01*
X116048923Y-63934819D02*
X116667970Y-63934819D01*
X116667970Y-63934819D02*
X116334637Y-64315771D01*
X116334637Y-64315771D02*
X116477494Y-64315771D01*
X116477494Y-64315771D02*
X116572732Y-64363390D01*
X116572732Y-64363390D02*
X116620351Y-64411009D01*
X116620351Y-64411009D02*
X116667970Y-64506247D01*
X116667970Y-64506247D02*
X116667970Y-64744342D01*
X116667970Y-64744342D02*
X116620351Y-64839580D01*
X116620351Y-64839580D02*
X116572732Y-64887200D01*
X116572732Y-64887200D02*
X116477494Y-64934819D01*
X116477494Y-64934819D02*
X116191780Y-64934819D01*
X116191780Y-64934819D02*
X116096542Y-64887200D01*
X116096542Y-64887200D02*
X116048923Y-64839580D01*
X110096541Y-65544819D02*
X110334636Y-66544819D01*
X110334636Y-66544819D02*
X110525112Y-65830533D01*
X110525112Y-65830533D02*
X110715588Y-66544819D01*
X110715588Y-66544819D02*
X110953684Y-65544819D01*
X111239398Y-65544819D02*
X111906064Y-65544819D01*
X111906064Y-65544819D02*
X111239398Y-66544819D01*
X111239398Y-66544819D02*
X111906064Y-66544819D01*
X112239398Y-65640057D02*
X112287017Y-65592438D01*
X112287017Y-65592438D02*
X112382255Y-65544819D01*
X112382255Y-65544819D02*
X112620350Y-65544819D01*
X112620350Y-65544819D02*
X112715588Y-65592438D01*
X112715588Y-65592438D02*
X112763207Y-65640057D01*
X112763207Y-65640057D02*
X112810826Y-65735295D01*
X112810826Y-65735295D02*
X112810826Y-65830533D01*
X112810826Y-65830533D02*
X112763207Y-65973390D01*
X112763207Y-65973390D02*
X112191779Y-66544819D01*
X112191779Y-66544819D02*
X112810826Y-66544819D01*
X113906064Y-66640057D02*
X113810826Y-66592438D01*
X113810826Y-66592438D02*
X113715588Y-66497200D01*
X113715588Y-66497200D02*
X113572731Y-66354342D01*
X113572731Y-66354342D02*
X113477493Y-66306723D01*
X113477493Y-66306723D02*
X113382255Y-66306723D01*
X113429874Y-66544819D02*
X113334636Y-66497200D01*
X113334636Y-66497200D02*
X113239398Y-66401961D01*
X113239398Y-66401961D02*
X113191779Y-66211485D01*
X113191779Y-66211485D02*
X113191779Y-65878152D01*
X113191779Y-65878152D02*
X113239398Y-65687676D01*
X113239398Y-65687676D02*
X113334636Y-65592438D01*
X113334636Y-65592438D02*
X113429874Y-65544819D01*
X113429874Y-65544819D02*
X113620350Y-65544819D01*
X113620350Y-65544819D02*
X113715588Y-65592438D01*
X113715588Y-65592438D02*
X113810826Y-65687676D01*
X113810826Y-65687676D02*
X113858445Y-65878152D01*
X113858445Y-65878152D02*
X113858445Y-66211485D01*
X113858445Y-66211485D02*
X113810826Y-66401961D01*
X113810826Y-66401961D02*
X113715588Y-66497200D01*
X113715588Y-66497200D02*
X113620350Y-66544819D01*
X113620350Y-66544819D02*
X113429874Y-66544819D01*
X131746666Y-67014819D02*
X131746666Y-67729104D01*
X131746666Y-67729104D02*
X131699047Y-67871961D01*
X131699047Y-67871961D02*
X131603809Y-67967200D01*
X131603809Y-67967200D02*
X131460952Y-68014819D01*
X131460952Y-68014819D02*
X131365714Y-68014819D01*
X132746666Y-68014819D02*
X132175238Y-68014819D01*
X132460952Y-68014819D02*
X132460952Y-67014819D01*
X132460952Y-67014819D02*
X132365714Y-67157676D01*
X132365714Y-67157676D02*
X132270476Y-67252914D01*
X132270476Y-67252914D02*
X132175238Y-67300533D01*
X121041666Y-100844819D02*
X121041666Y-101559104D01*
X121041666Y-101559104D02*
X120994047Y-101701961D01*
X120994047Y-101701961D02*
X120898809Y-101797200D01*
X120898809Y-101797200D02*
X120755952Y-101844819D01*
X120755952Y-101844819D02*
X120660714Y-101844819D01*
X121470238Y-100940057D02*
X121517857Y-100892438D01*
X121517857Y-100892438D02*
X121613095Y-100844819D01*
X121613095Y-100844819D02*
X121851190Y-100844819D01*
X121851190Y-100844819D02*
X121946428Y-100892438D01*
X121946428Y-100892438D02*
X121994047Y-100940057D01*
X121994047Y-100940057D02*
X122041666Y-101035295D01*
X122041666Y-101035295D02*
X122041666Y-101130533D01*
X122041666Y-101130533D02*
X121994047Y-101273390D01*
X121994047Y-101273390D02*
X121422619Y-101844819D01*
X121422619Y-101844819D02*
X122041666Y-101844819D01*
D11*
%TO.C,J1*%
X127520000Y-83040000D02*
X128830000Y-83040000D01*
X135330000Y-69750000D02*
X135330000Y-100430000D01*
X128830000Y-83040000D02*
X128830000Y-69750000D01*
X128830000Y-100430000D02*
X128830000Y-87140000D01*
X126130000Y-74160000D02*
X127130000Y-73660000D01*
X127520000Y-101730000D02*
X127520000Y-68450000D01*
X135330000Y-100430000D02*
X128830000Y-100430000D01*
X127520000Y-68450000D02*
X136640000Y-68450000D01*
X128830000Y-87140000D02*
X128830000Y-87140000D01*
X126130000Y-73160000D02*
X126130000Y-74160000D01*
X128830000Y-69750000D02*
X135330000Y-69750000D01*
X136640000Y-101730000D02*
X127520000Y-101730000D01*
X136640000Y-68450000D02*
X136640000Y-101730000D01*
X128830000Y-87140000D02*
X127520000Y-87140000D01*
X127130000Y-73660000D02*
X126130000Y-73160000D01*
%TO.C,J2*%
X120045000Y-97790000D02*
X120045000Y-69790000D01*
X122705000Y-69790000D02*
X120045000Y-69790000D01*
X122705000Y-97790000D02*
X122705000Y-69790000D01*
X122705000Y-99060000D02*
X122705000Y-100390000D01*
X122705000Y-100390000D02*
X121375000Y-100390000D01*
X122705000Y-97790000D02*
X120045000Y-97790000D01*
%TD*%
M02*
